<svg xmlns="http://www.w3.org/2000/svg" xmlns:xlink="http://www.w3.org/1999/xlink" xml:space="preserve" width="64" height="64"><defs><linearGradient id="r"><stop offset="0" style="stop-color:#a40000;stop-opacity:1"/><stop offset="1" style="stop-color:#ef2929;stop-opacity:1"/></linearGradient><linearGradient id="q"><stop offset="0" style="stop-color:#a40000;stop-opacity:1"/><stop offset="1" style="stop-color:#ef2929;stop-opacity:1"/></linearGradient><linearGradient id="o"><stop offset="0" style="stop-color:#3465a4;stop-opacity:1"/><stop offset="1" style="stop-color:#204a87;stop-opacity:1"/></linearGradient><linearGradient id="n"><stop offset="0" style="stop-color:#204a87;stop-opacity:1"/><stop offset="1" style="stop-color:#3465a4;stop-opacity:1"/></linearGradient><linearGradient id="m"><stop offset="0" style="stop-color:#3465a4;stop-opacity:1"/><stop offset="1" style="stop-color:#729fcf;stop-opacity:1"/></linearGradient><linearGradient id="l"><stop offset="0" style="stop-color:#ef2929;stop-opacity:1"/><stop offset="1" style="stop-color:#a40000;stop-opacity:1"/></linearGradient><linearGradient id="a"><stop offset="0" style="stop-color:#c51900;stop-opacity:1"/><stop offset="1" style="stop-color:#ff5f00;stop-opacity:1"/></linearGradient><linearGradient id="b"><stop offset="0" style="stop-color:#c51900;stop-opacity:1"/><stop offset="1" style="stop-color:#ff5f00;stop-opacity:1"/></linearGradient><linearGradient id="c"><stop offset="0" style="stop-color:#ff2600;stop-opacity:1"/><stop offset="1" style="stop-color:#840000;stop-opacity:1"/></linearGradient><linearGradient id="d"><stop offset="0" style="stop-color:#ff2600;stop-opacity:1"/><stop offset="1" style="stop-color:#ff5f00;stop-opacity:1"/></linearGradient><linearGradient id="e"><stop offset="0" style="stop-color:#af7d00;stop-opacity:1"/><stop offset="1" style="stop-color:#ffed00;stop-opacity:1"/></linearGradient><linearGradient id="f"><stop offset="0" style="stop-color:#af7d00;stop-opacity:1"/><stop offset="1" style="stop-color:#ffed00;stop-opacity:1"/></linearGradient><linearGradient id="g"><stop offset="0" style="stop-color:#af7d00;stop-opacity:1"/><stop offset="1" style="stop-color:#ffed00;stop-opacity:1"/></linearGradient><linearGradient id="h"><stop offset="0" style="stop-color:#d82b1e;stop-opacity:1"/><stop offset="1" style="stop-color:#840000;stop-opacity:1"/></linearGradient><linearGradient id="i"><stop offset="0" style="stop-color:#d82b1e;stop-opacity:1"/><stop offset="1" style="stop-color:#840000;stop-opacity:1"/></linearGradient><linearGradient id="j"><stop offset="0" style="stop-color:#001ccc;stop-opacity:1"/><stop offset="1" style="stop-color:#00afff;stop-opacity:1"/></linearGradient><linearGradient id="k"><stop offset="0" style="stop-color:#af7d00;stop-opacity:1"/><stop offset="1" style="stop-color:#ffed00;stop-opacity:1"/></linearGradient><linearGradient id="p"><stop offset="0" style="stop-color:#3465a4;stop-opacity:1"/><stop offset="1" style="stop-color:#204a87;stop-opacity:1"/></linearGradient><linearGradient xlink:href="#r" id="s" x1="25.76" x2="31.31" y1="25.23" y2="33.31" gradientUnits="userSpaceOnUse"/><linearGradient xlink:href="#r" id="t" x1="22.01" x2="19.55" y1="32.82" y2="17.57" gradientTransform="translate(27.06 7.47)" gradientUnits="userSpaceOnUse"/></defs><path d="m12.88 28.5 18.44-9.17 11.52 18.74-17.44 8.01Z" style="fill:url(#s);fill-opacity:1;stroke:none;stroke-width:1px;stroke-linecap:butt;stroke-linejoin:miter;stroke-opacity:1"/><path d="M40.31 36.59 59.12 27s-1.54 6.55-4.13 9.6c-6.5 7.67-26.41 14.95-26.41 14.95z" style="fill:url(#t);fill-opacity:1;stroke:none;stroke-width:1px;stroke-linecap:butt;stroke-linejoin:miter;stroke-opacity:1"/><path d="m17.31 28.56 15.05-8.05M51.36 26.33c-.52 2.63-2.32 5.17-5.01 5.87-2.75.74-5.75.01-8.14-1.45-3.56-2.36-5.4-7.95-6.21-11.99" style="fill:none;stroke:#ef2929;stroke-width:2;stroke-linecap:butt;stroke-linejoin:miter;stroke-dasharray:none;stroke-opacity:1"/><path d="M42.36 37.83s11.76-5.95 16.07-9.13c-2.27 7.08-3.63 7.73-4.97 9.08-.81.3-20.86 11.76-20.86 11.76s8.08-2.12 9.76-11.71z" style="fill:none;stroke:#ef2929;stroke-width:2;stroke-linecap:butt;stroke-linejoin:round;stroke-dasharray:none;stroke-opacity:1"/><path d="M36.1 33c-.52 2.63-2.32 5.17-5 5.87-2.76.74-6.64.01-9.02-1.45-3.56-2.36-4.53-7.95-5.34-12" style="fill:none;stroke:#ef2929;stroke-width:2;stroke-linecap:butt;stroke-linejoin:miter;stroke-dasharray:none;stroke-opacity:1"/><path d="M6 24s.4 19.64 15 26c13.9 6.05 20-5.93 20-13l-9.69-3.69c-.37 7.25-4.93 7.7-8.81 6.31-6.4-2.28-7.13-12.18-7.13-12.18z" style="fill:none;stroke:#280000;stroke-width:2.8;stroke-linecap:butt;stroke-linejoin:round;stroke-opacity:1;stroke-dasharray:none"/><path d="M54.48 38.1c3.26-3.12 4.93-7.31 4.93-10.85l-9.7-3.69c-.37 7.25-4.92 7.7-8.8 6.31-6.4-2.28-7.13-12.18-7.13-12.18l-9.37-3.44" style="fill:none;stroke:#280000;stroke-width:2;stroke-linecap:round;stroke-linejoin:round;stroke-dasharray:none;stroke-opacity:1"/><path d="M24.76 15.58a.85.85 0 0 0-.7.05L10.47 22.9a.85.85 0 0 0 .11 1.55l4.36 1.6a.85.85 0 0 0 .69-.05l13.74-7.2a.85.85 0 0 0-.1-1.55z" style="fill:#204a87;fill-opacity:1;stroke:#729fcf;stroke-width:2;stroke-linecap:round;stroke-linejoin:miter;stroke-dasharray:none;stroke-opacity:1;paint-order:fill markers stroke"/><path d="m6 24 18.31-9.81 9.56 3.56-18.5 9.69Z" style="fill:none;stroke:#0b1521;stroke-width:2;stroke-linecap:round;stroke-linejoin:round;stroke-opacity:1;stroke-dasharray:none"/><path d="M50.1 24.87a.75.75 0 0 0-.63.04l-13.73 7.42a.75.75 0 0 0 .1 1.37l4.74 1.8a.75.75 0 0 0 .63-.04l13.55-7.48a.75.75 0 0 0-.1-1.36z" style="fill:#204a87;fill-opacity:1;stroke:#729fcf;stroke-width:2;stroke-linecap:round;stroke-linejoin:miter;stroke-dasharray:none;stroke-opacity:1"/><path d="m31.31 33.31 18.38-9.94L59.12 27 41 37Z" style="fill:none;stroke:#0b1521;stroke-width:2;stroke-linecap:round;stroke-linejoin:round;stroke-opacity:1;stroke-dasharray:none"/><path d="M8.38 27.6c.96 6.02 3.17 12.1 7.52 16.52a18.7 18.7 0 0 0 11.56 5.51 9.62 9.62 0 0 0 8.2-3.55 14.95 14.95 0 0 0 3.26-7.73l-5.96-2.27c-.53 2.63-2.32 5.17-5.02 5.87-2.75.74-5.75.01-8.14-1.45-3.55-2.36-5.28-6.58-6.08-10.61-.05-.65-.17-1.22-.93-1.27l-4.5-1.65.09.63z" style="fill:#a40000;stroke:#ef2929;stroke-width:2;stroke-linecap:butt;stroke-linejoin:miter;stroke-dasharray:none;stroke-opacity:1;paint-order:fill markers stroke;fill-opacity:1"/><path d="m32.4 50.94 22.14-12.71" style="fill:none;stroke:#280000;stroke-width:2;stroke-linecap:round;stroke-linejoin:miter;stroke-dasharray:none;stroke-opacity:1"/></svg>