<svg xmlns="http://www.w3.org/2000/svg" xmlns:xlink="http://www.w3.org/1999/xlink" width="64" height="64"><defs><linearGradient id="r"><stop offset="0" style="stop-color:#c4a000;stop-opacity:1"/><stop offset="1" style="stop-color:#fce94f;stop-opacity:1"/></linearGradient><linearGradient id="q"><stop offset="0" style="stop-color:#a40000;stop-opacity:1"/><stop offset="1" style="stop-color:#ef2929;stop-opacity:1"/></linearGradient><linearGradient id="o"><stop offset="0" style="stop-color:#3465a4;stop-opacity:1"/><stop offset="1" style="stop-color:#204a87;stop-opacity:1"/></linearGradient><linearGradient id="n"><stop offset="0" style="stop-color:#204a87;stop-opacity:1"/><stop offset="1" style="stop-color:#3465a4;stop-opacity:1"/></linearGradient><linearGradient id="m"><stop offset="0" style="stop-color:#3465a4;stop-opacity:1"/><stop offset="1" style="stop-color:#729fcf;stop-opacity:1"/></linearGradient><linearGradient id="l"><stop offset="0" style="stop-color:#ef2929;stop-opacity:1"/><stop offset="1" style="stop-color:#a40000;stop-opacity:1"/></linearGradient><linearGradient id="a"><stop offset="0" style="stop-color:#c51900;stop-opacity:1"/><stop offset="1" style="stop-color:#ff5f00;stop-opacity:1"/></linearGradient><linearGradient id="b"><stop offset="0" style="stop-color:#c51900;stop-opacity:1"/><stop offset="1" style="stop-color:#ff5f00;stop-opacity:1"/></linearGradient><linearGradient id="c"><stop offset="0" style="stop-color:#ff2600;stop-opacity:1"/><stop offset="1" style="stop-color:#840000;stop-opacity:1"/></linearGradient><linearGradient id="d"><stop offset="0" style="stop-color:#ff2600;stop-opacity:1"/><stop offset="1" style="stop-color:#ff5f00;stop-opacity:1"/></linearGradient><linearGradient id="e"><stop offset="0" style="stop-color:#af7d00;stop-opacity:1"/><stop offset="1" style="stop-color:#ffed00;stop-opacity:1"/></linearGradient><linearGradient id="f"><stop offset="0" style="stop-color:#af7d00;stop-opacity:1"/><stop offset="1" style="stop-color:#ffed00;stop-opacity:1"/></linearGradient><linearGradient id="g"><stop offset="0" style="stop-color:#af7d00;stop-opacity:1"/><stop offset="1" style="stop-color:#ffed00;stop-opacity:1"/></linearGradient><linearGradient id="h"><stop offset="0" style="stop-color:#d82b1e;stop-opacity:1"/><stop offset="1" style="stop-color:#840000;stop-opacity:1"/></linearGradient><linearGradient id="i"><stop offset="0" style="stop-color:#d82b1e;stop-opacity:1"/><stop offset="1" style="stop-color:#840000;stop-opacity:1"/></linearGradient><linearGradient id="j"><stop offset="0" style="stop-color:#001ccc;stop-opacity:1"/><stop offset="1" style="stop-color:#00afff;stop-opacity:1"/></linearGradient><linearGradient id="k"><stop offset="0" style="stop-color:#af7d00;stop-opacity:1"/><stop offset="1" style="stop-color:#ffed00;stop-opacity:1"/></linearGradient><linearGradient xlink:href="#o" id="t" x1="48" x2="54" y1="16" y2="58" gradientUnits="userSpaceOnUse"/><linearGradient id="p"><stop offset="0" style="stop-color:#3465a4;stop-opacity:1"/><stop offset="1" style="stop-color:#204a87;stop-opacity:1"/></linearGradient><linearGradient xlink:href="#q" id="s" x1="21" x2="28" y1="18" y2="47" gradientUnits="userSpaceOnUse"/><linearGradient xlink:href="#r" id="u" x1="79.74" x2="79.74" y1="-.63" y2="31" gradientUnits="userSpaceOnUse"/></defs><g style="font-size:54.21519089000000236px;font-style:normal;font-variant:normal;font-weight:400;font-stretch:normal;fill:#ff2600;fill-opacity:1;stroke:#731200;font-family:Arial;-inkscape-font-specification:Arial;color:#000;fill-rule:nonzero;stroke-width:2.19132471;stroke-linecap:square;stroke-linejoin:round;stroke-miterlimit:4;stroke-opacity:1;stroke-dasharray:none;stroke-dashoffset:0;marker:none;visibility:visible;display:inline;overflow:visible;enable-background:accumulate" transform="scale(.739 1.354)"><g style="stroke-linejoin:round;stroke-linecap:round"><path d="M131.3 6.65V42.1l51.45 7.37V14.02L131.3 6.65zm25.73 8.12c10.65 1.52 19.29 8.71 19.29 16.06 0 7.34-8.64 12.06-19.3 10.53-10.65-1.53-19.28-8.72-19.28-16.06 0-7.34 8.63-12.06 19.29-10.53z" style="font-size:54.21519089px;font-style:normal;font-variant:normal;font-weight:400;font-stretch:normal;color:#000;fill:#3465a4;fill-opacity:1;fill-rule:nonzero;stroke:#0b1521;stroke-width:1.99999988;stroke-linecap:round;stroke-linejoin:round;stroke-miterlimit:4;stroke-opacity:1;stroke-dasharray:none;stroke-dashoffset:2.04;marker:none;visibility:visible;display:inline;overflow:visible;enable-background:accumulate;font-family:Arial;-inkscape-font-specification:Arial" transform="translate(-100.17 -4.42)"/><path d="M135.39-10.63h46.5v32.35h-46.5z" style="font-size:54.21519089px;font-style:normal;font-variant:normal;font-weight:400;font-stretch:normal;color:#000;fill:none;stroke:#729fcf;stroke-width:2.01018834;stroke-linecap:round;stroke-linejoin:round;stroke-miterlimit:4;stroke-opacity:1;stroke-dasharray:none;stroke-dashoffset:2.04;marker:none;visibility:visible;display:inline;overflow:visible;enable-background:accumulate;font-family:Arial;-inkscape-font-specification:Arial" transform="matrix(.99 .142 0 1 -100.17 -4.42)"/><path d="M44 26a18 18 0 1 1-36 0 18 18 0 0 1 36 0z" style="font-size:54.21519089px;font-style:normal;font-variant:normal;font-weight:400;font-stretch:normal;color:#000;fill:none;stroke:#280000;stroke-width:2.24780583;stroke-linecap:round;stroke-linejoin:round;stroke-miterlimit:4;stroke-opacity:1;stroke-dasharray:none;stroke-dashoffset:2.04;marker:none;visibility:visible;display:inline;overflow:visible;enable-background:accumulate;font-family:Arial;-inkscape-font-specification:Arial" transform="matrix(1.072 .154 0 .739 29 .45)"/></g><path stroke="none" d="M34 15 7 14v35l32.17 1.34S29 45 27 31s7-16 7-16Z" style="fill:url(#s);fill-opacity:1;stroke:none;stroke-linecap:round;stroke-linejoin:round" transform="scale(1.354 .739)"/><ellipse cx="26" cy="26" rx="17.69" ry="18" style="color:#000;font-style:normal;font-variant:normal;font-weight:400;font-stretch:normal;font-size:54.2152px;font-family:Arial;-inkscape-font-specification:Arial;display:inline;overflow:visible;visibility:visible;fill:none;stroke:#ef2929;stroke-width:2.24781;stroke-linecap:round;stroke-linejoin:round;stroke-miterlimit:4;stroke-dasharray:none;stroke-dashoffset:2.04;stroke-opacity:1;marker:none;enable-background:accumulate" transform="matrix(1.072 .154 0 .739 26.28 .88)"/><ellipse cx="26" cy="26" rx="18.89" ry="18.96" style="color:#000;font-style:normal;font-variant:normal;font-weight:400;font-stretch:normal;font-size:54.2152px;font-family:Arial;-inkscape-font-specification:Arial;display:inline;overflow:visible;visibility:visible;fill:none;stroke:#ef2929;stroke-width:2.32564;stroke-linecap:round;stroke-linejoin:round;stroke-miterlimit:4;stroke-dasharray:none;stroke-dashoffset:2.04;stroke-opacity:1;marker:none;enable-background:accumulate" transform="matrix(1.072 .143 0 .69 4.63 1.36)"/><path d="M4.06 2.22v35.46l51.44 7.37V9.59L4.06 2.22zm25.72 8.11c10.65 1.53 19.3 8.72 19.3 16.07 0 7.34-8.65 12.05-19.3 10.53C19.13 35.4 10.5 28.2 10.5 20.87c0-7.35 8.64-12.06 19.3-10.54z" style="fill:#3465a4;stroke:#0b1521;stroke-width:1.99999988;stroke-linecap:round;stroke-linejoin:round;stroke-miterlimit:4;stroke-opacity:1;stroke-dasharray:none;stroke-dashoffset:2.04"/><path d="M6.11 3.61h47.45v31.43H6.11z" style="color:#000;font-style:normal;font-variant:normal;font-weight:400;font-stretch:normal;font-size:54.2152px;font-family:Arial;-inkscape-font-specification:Arial;display:inline;overflow:visible;visibility:visible;fill:none;stroke:#729fcf;stroke-width:2.01019;stroke-linecap:round;stroke-linejoin:round;stroke-miterlimit:4;stroke-dasharray:none;stroke-dashoffset:2.04;stroke-opacity:1;marker:none;enable-background:accumulate" transform="skewY(8.15) scale(.99 1)"/><path d="M45 27a18 18 0 1 1-36 0 18 18 0 1 1 36 0z" style="fill:none;stroke:#729fcf;stroke-width:1.99819779;stroke-linecap:round;stroke-linejoin:round;stroke-miterlimit:4;stroke-opacity:1;stroke-dasharray:none;stroke-dashoffset:2.04" transform="matrix(1.19 .175 0 .841 -2.37 -3.43)"/><path d="M44 26a18 18 0 1 1-36 0 18 18 0 0 1 36 0z" style="fill:none;stroke:#280000;stroke-width:2.24780583;stroke-linecap:round;stroke-linejoin:round;stroke-miterlimit:4;stroke-opacity:1;stroke-dasharray:none;stroke-dashoffset:2.04" transform="matrix(1.072 .154 0 .739 1.92 .43)"/><path d="M3.26 2.56h20L61 12.88H41Z" style="fill:#729fcf;stroke:#0b1521;stroke-width:2;stroke-linecap:round;stroke-linejoin:round;stroke-opacity:1" transform="scale(1.354 .739)"/><path d="M41 12.7v48.68h20V12.7Z" style="fill:url(#t);fill-opacity:1;stroke:#0b1521;stroke-width:2;stroke-linecap:round;stroke-linejoin:round;stroke-opacity:1" transform="scale(1.354 .739)"/><path d="M57.77 11.23v32.26l22.1-.08V11.23z" style="color:#000;font-style:normal;font-variant:normal;font-weight:400;font-stretch:normal;font-size:54.2152px;font-family:Arial;-inkscape-font-specification:Arial;display:inline;overflow:visible;visibility:visible;fill:none;fill-opacity:1;fill-rule:nonzero;stroke:#3465a4;stroke-width:2;stroke-linecap:round;stroke-linejoin:round;stroke-miterlimit:4;stroke-dasharray:none;stroke-dashoffset:0;stroke-opacity:1;marker:none;enable-background:accumulate"/><path d="M44 26a18 18 0 1 1-36 0 18 18 0 1 1 36 0z" style="font-size:54.21519089px;font-style:normal;font-variant:normal;font-weight:400;font-stretch:normal;color:#000;fill:none;stroke:#280000;stroke-width:2.24780583;stroke-linecap:round;stroke-linejoin:round;stroke-miterlimit:4;stroke-opacity:1;stroke-dasharray:none;stroke-dashoffset:2.04;marker:none;visibility:visible;display:inline;overflow:visible;enable-background:accumulate;font-family:Arial;-inkscape-font-specification:Arial" transform="matrix(1.072 .154 0 .739 1.92 1.17)"/></g><path d="m79.72 1.44 3.47 10.43 11 .03-8.85 6.53 3.36 10.46-8.94-6.4-8.91 6.44 3.32-10.48-8.87-6.49 10.99-.08z" style="fill:url(#u);fill-opacity:1;stroke:#fce94f;stroke-width:2.74815286;stroke-linecap:round;stroke-linejoin:round;stroke-dasharray:none;stroke-dashoffset:0;stroke-opacity:1;paint-order:normal" transform="translate(-43.51 5.98) scale(1.058)"/><path d="m79.72 1.44 3.47 10.43 11 .03-8.85 6.53 3.36 10.46-8.94-6.4-8.91 6.44 3.32-10.48-8.87-6.49 10.99-.08z" style="fill:none;fill-opacity:1;stroke:#302b00;stroke-width:1.46076075;stroke-linecap:round;stroke-linejoin:round;stroke-dasharray:none;stroke-dashoffset:0;stroke-opacity:1;paint-order:normal" transform="matrix(1.37 0 0 1.37 -68.32 .82)"/></svg>