<?xml version="1.0" encoding="UTF-8" standalone="no"?>
<!-- Created with Inkscape (http://www.inkscape.org/) -->

<svg
   width="64px"
   height="64px"
   id="svg2816"
   version="1.1"
   sodipodi:docname="ffDesign_CounterboreBridges.svg"
   inkscape:version="1.4.1 (93de688d07, 2025-03-30)"
   xmlns:inkscape="http://www.inkscape.org/namespaces/inkscape"
   xmlns:sodipodi="http://sodipodi.sourceforge.net/DTD/sodipodi-0.dtd"
   xmlns:xlink="http://www.w3.org/1999/xlink"
   xmlns="http://www.w3.org/2000/svg"
   xmlns:svg="http://www.w3.org/2000/svg"
   xmlns:rdf="http://www.w3.org/1999/02/22-rdf-syntax-ns#"
   xmlns:cc="http://creativecommons.org/ns#"
   xmlns:dc="http://purl.org/dc/elements/1.1/">
  <sodipodi:namedview
     id="namedview1"
     pagecolor="#ffffff"
     bordercolor="#666666"
     borderopacity="1.0"
     inkscape:showpageshadow="2"
     inkscape:pageopacity="0.0"
     inkscape:pagecheckerboard="true"
     inkscape:deskcolor="#d1d1d1"
     inkscape:zoom="8.0000004"
     inkscape:cx="22.062499"
     inkscape:cy="33.124999"
     inkscape:window-width="2560"
     inkscape:window-height="1384"
     inkscape:window-x="1920"
     inkscape:window-y="0"
     inkscape:window-maximized="1"
     inkscape:current-layer="layer2"
     showgrid="true">
    <inkscape:grid
       id="grid1"
       units="px"
       originx="0"
       originy="0"
       spacingx="1"
       spacingy="1"
       empcolor="#3f3fff"
       empopacity="0.25098039"
       color="#3f3fff"
       opacity="0.1254902"
       empspacing="8"
       enabled="true"
       visible="true" />
  </sodipodi:namedview>
  <defs
     id="defs2818">
    <linearGradient
       id="linearGradient6"
       inkscape:collect="always">
      <stop
         style="stop-color:#a40000;stop-opacity:1;"
         offset="0"
         id="stop6" />
      <stop
         style="stop-color:#e52929;stop-opacity:1;"
         offset="1"
         id="stop7" />
    </linearGradient>
    <linearGradient
       id="linearGradient5">
      <stop
         style="stop-color:#c4a000;stop-opacity:1;"
         offset="0"
         id="stop4" />
      <stop
         style="stop-color:#fce94f;stop-opacity:1;"
         offset="1"
         id="stop5" />
    </linearGradient>
    <linearGradient
       id="linearGradient4006">
      <stop
         style="stop-color:#a40000;stop-opacity:1"
         offset="0"
         id="stop4008" />
      <stop
         style="stop-color:#ef2929;stop-opacity:1"
         offset="1"
         id="stop4010" />
    </linearGradient>
    <linearGradient
       id="linearGradient3908">
      <stop
         style="stop-color:#3465a4;stop-opacity:1"
         offset="0"
         id="stop3910" />
      <stop
         style="stop-color:#204a87;stop-opacity:1"
         offset="1"
         id="stop3912" />
    </linearGradient>
    <linearGradient
       id="linearGradient3867">
      <stop
         style="stop-color:#204a87;stop-opacity:1;"
         offset="0"
         id="stop3869" />
      <stop
         style="stop-color:#3465a4;stop-opacity:1"
         offset="1"
         id="stop3871" />
    </linearGradient>
    <linearGradient
       id="linearGradient3859">
      <stop
         style="stop-color:#3465a4;stop-opacity:1;"
         offset="0"
         id="stop3861" />
      <stop
         style="stop-color:#729fcf;stop-opacity:1"
         offset="1"
         id="stop3863" />
    </linearGradient>
    <linearGradient
       id="linearGradient4009">
      <stop
         style="stop-color:#ef2929;stop-opacity:1"
         offset="0"
         id="stop4011" />
      <stop
         style="stop-color:#a40000;stop-opacity:1"
         offset="1"
         id="stop4013" />
    </linearGradient>
    <linearGradient
       id="linearGradient4407">
      <stop
         id="stop4409"
         offset="0"
         style="stop-color:#001ccc;stop-opacity:0" />
      <stop
         id="stop4411"
         offset="1"
         style="stop-color:#00afff;stop-opacity:1;" />
    </linearGradient>
    <linearGradient
       id="linearGradient3669">
      <stop
         style="stop-color:#001ccc;stop-opacity:1;"
         offset="0"
         id="stop3671" />
      <stop
         style="stop-color:#00afff;stop-opacity:1;"
         offset="1"
         id="stop3673" />
    </linearGradient>
    <linearGradient
       id="linearGradient3602">
      <stop
         style="stop-color:#ff2600;stop-opacity:1;"
         offset="0"
         id="stop3604" />
      <stop
         style="stop-color:#ff5f00;stop-opacity:1;"
         offset="1"
         id="stop3606" />
    </linearGradient>
    <linearGradient
       xlink:href="#linearGradient3602-7"
       id="linearGradient3608-5"
       x1="3.909091"
       y1="14.363636"
       x2="24.81818"
       y2="14.363636"
       gradientUnits="userSpaceOnUse" />
    <linearGradient
       id="linearGradient3602-7">
      <stop
         style="stop-color:#c51900;stop-opacity:1;"
         offset="0"
         id="stop3604-1" />
      <stop
         style="stop-color:#ff5f00;stop-opacity:1;"
         offset="1"
         id="stop3606-3" />
    </linearGradient>
    <linearGradient
       xlink:href="#linearGradient3602-5"
       id="linearGradient3608-1"
       x1="3.909091"
       y1="14.363636"
       x2="24.81818"
       y2="14.363636"
       gradientUnits="userSpaceOnUse" />
    <linearGradient
       id="linearGradient3602-5">
      <stop
         style="stop-color:#c51900;stop-opacity:1;"
         offset="0"
         id="stop3604-9" />
      <stop
         style="stop-color:#ff5f00;stop-opacity:1;"
         offset="1"
         id="stop3606-9" />
    </linearGradient>
    <linearGradient
       y2="14.363636"
       x2="24.81818"
       y1="14.363636"
       x1="3.909091"
       gradientUnits="userSpaceOnUse"
       id="linearGradient3686"
       xlink:href="#linearGradient3602-5" />
    <linearGradient
       xlink:href="#linearGradient3602-58"
       id="linearGradient3608-8"
       x1="3.909091"
       y1="14.363636"
       x2="24.81818"
       y2="14.363636"
       gradientUnits="userSpaceOnUse" />
    <linearGradient
       id="linearGradient3602-58">
      <stop
         style="stop-color:#ff2600;stop-opacity:1;"
         offset="0"
         id="stop3604-2" />
      <stop
         style="stop-color:#840000;stop-opacity:1;"
         offset="1"
         id="stop3606-2" />
    </linearGradient>
    <linearGradient
       y2="14.363636"
       x2="24.81818"
       y1="14.363636"
       x1="3.909091"
       gradientUnits="userSpaceOnUse"
       id="linearGradient3726"
       xlink:href="#linearGradient3602-58" />
    <linearGradient
       id="linearGradient3602-1">
      <stop
         style="stop-color:#ff2600;stop-opacity:1;"
         offset="0"
         id="stop3604-8" />
      <stop
         style="stop-color:#ff5f00;stop-opacity:1;"
         offset="1"
         id="stop3606-96" />
    </linearGradient>
    <linearGradient
       xlink:href="#linearGradient3602-1"
       id="linearGradient2875"
       gradientUnits="userSpaceOnUse"
       x1="3.909091"
       y1="14.363636"
       x2="24.81818"
       y2="14.363636" />
    <linearGradient
       id="linearGradient3602-1-5">
      <stop
         style="stop-color:#ff2600;stop-opacity:1;"
         offset="0"
         id="stop3604-8-3" />
      <stop
         style="stop-color:#ff5f00;stop-opacity:1;"
         offset="1"
         id="stop3606-96-8" />
    </linearGradient>
    <linearGradient
       id="linearGradient3602-1-8">
      <stop
         style="stop-color:#ff2600;stop-opacity:1;"
         offset="0"
         id="stop3604-8-5" />
      <stop
         style="stop-color:#ff5f00;stop-opacity:1;"
         offset="1"
         id="stop3606-96-2" />
    </linearGradient>
    <linearGradient
       id="linearGradient3669-2">
      <stop
         style="stop-color:#af7d00;stop-opacity:1;"
         offset="0"
         id="stop3671-7" />
      <stop
         style="stop-color:#ffed00;stop-opacity:1;"
         offset="1"
         id="stop3673-5" />
    </linearGradient>
    <linearGradient
       gradientTransform="matrix(0.73872768,0,0,1.3536788,-2.25,-1.9999999)"
       y2="1.8468192"
       x2="48.259949"
       y1="33.61211"
       x1="34.290413"
       gradientUnits="userSpaceOnUse"
       id="linearGradient3698"
       xlink:href="#linearGradient3669-2" />
    <linearGradient
       id="linearGradient3669-22">
      <stop
         style="stop-color:#af7d00;stop-opacity:1;"
         offset="0"
         id="stop3671-8" />
      <stop
         style="stop-color:#ffed00;stop-opacity:1;"
         offset="1"
         id="stop3673-4" />
    </linearGradient>
    <linearGradient
       gradientTransform="matrix(0.73872768,0,0,1.3536788,-2.25,-1.9999999)"
       y2="1.8468192"
       x2="48.259949"
       y1="33.61211"
       x1="34.290413"
       gradientUnits="userSpaceOnUse"
       id="linearGradient3698-3"
       xlink:href="#linearGradient3669-22" />
    <linearGradient
       id="linearGradient3669-0">
      <stop
         style="stop-color:#af7d00;stop-opacity:1;"
         offset="0"
         id="stop3671-9" />
      <stop
         style="stop-color:#ffed00;stop-opacity:1;"
         offset="1"
         id="stop3673-1" />
    </linearGradient>
    <linearGradient
       gradientTransform="matrix(0.73872768,0,0,1.3536788,-2.25,-1.9999999)"
       y2="1.8468192"
       x2="48.259949"
       y1="33.61211"
       x1="34.290413"
       gradientUnits="userSpaceOnUse"
       id="linearGradient3698-9"
       xlink:href="#linearGradient3669-0" />
    <linearGradient
       xlink:href="#linearGradient3602-58-5"
       id="linearGradient4030-1"
       x1="42.239037"
       y1="23.095947"
       x2="36.44146"
       y2="21.198208"
       gradientUnits="userSpaceOnUse" />
    <linearGradient
       id="linearGradient3602-58-5">
      <stop
         style="stop-color:#d82b1e;stop-opacity:1;"
         offset="0"
         id="stop3604-2-5" />
      <stop
         style="stop-color:#840000;stop-opacity:1;"
         offset="1"
         id="stop3606-2-4" />
    </linearGradient>
    <linearGradient
       xlink:href="#linearGradient3602-58-50"
       id="linearGradient4030-6"
       x1="42.239037"
       y1="23.095947"
       x2="36.44146"
       y2="21.198208"
       gradientUnits="userSpaceOnUse" />
    <linearGradient
       id="linearGradient3602-58-50">
      <stop
         style="stop-color:#d82b1e;stop-opacity:1;"
         offset="0"
         id="stop3604-2-8" />
      <stop
         style="stop-color:#840000;stop-opacity:1;"
         offset="1"
         id="stop3606-2-2" />
    </linearGradient>
    <linearGradient
       xlink:href="#linearGradient3669-3"
       id="linearGradient4329-0"
       gradientUnits="userSpaceOnUse"
       gradientTransform="matrix(0.81731796,0,0,1.9288701,-2.7299862,-14.350362)"
       x1="78.740204"
       y1="21.910299"
       x2="70.337143"
       y2="24.084332" />
    <linearGradient
       id="linearGradient3669-3">
      <stop
         style="stop-color:#001ccc;stop-opacity:1;"
         offset="0"
         id="stop3671-2" />
      <stop
         style="stop-color:#00afff;stop-opacity:1;"
         offset="1"
         id="stop3673-2" />
    </linearGradient>
    <linearGradient
       xlink:href="#linearGradient3669-22-5"
       id="linearGradient3675-0-5"
       x1="34.290413"
       y1="33.61211"
       x2="48.259949"
       y2="1.8468192"
       gradientUnits="userSpaceOnUse"
       gradientTransform="matrix(1.4976911,0,0,1.0526203,-3.6955244,-10.60101)" />
    <linearGradient
       id="linearGradient3669-22-5">
      <stop
         style="stop-color:#af7d00;stop-opacity:1;"
         offset="0"
         id="stop3671-8-3" />
      <stop
         style="stop-color:#ffed00;stop-opacity:1;"
         offset="1"
         id="stop3673-4-0" />
    </linearGradient>
    <radialGradient
       xlink:href="#linearGradient4009"
       id="radialGradient4017"
       cx="-38.110359"
       cy="21.017715"
       fx="-38.110359"
       fy="21.017715"
       r="17.227106"
       gradientTransform="matrix(1.0284162,-0.00250002,0.00475038,0.581957,0.49198438,-0.85035592)"
       gradientUnits="userSpaceOnUse" />
    <linearGradient
       xlink:href="#linearGradient3859"
       id="linearGradient3865"
       x1="21.658861"
       y1="36.936382"
       x2="20.305182"
       y2="28.071651"
       gradientUnits="userSpaceOnUse"
       gradientTransform="translate(-89.353353,-3.7800688)" />
    <linearGradient
       xlink:href="#linearGradient3867"
       id="linearGradient3873"
       x1="66.330261"
       y1="30.287834"
       x2="62.269226"
       y2="23.639286"
       gradientUnits="userSpaceOnUse"
       gradientTransform="translate(-89.353353,-3.7800688)" />
    <linearGradient
       xlink:href="#linearGradient3908"
       id="linearGradient3914"
       x1="48"
       y1="16"
       x2="54"
       y2="58"
       gradientUnits="userSpaceOnUse" />
    <linearGradient
       xlink:href="#linearGradient3908-5"
       id="linearGradient3914-3"
       x1="48"
       y1="16"
       x2="54"
       y2="58"
       gradientUnits="userSpaceOnUse" />
    <linearGradient
       id="linearGradient3908-5">
      <stop
         style="stop-color:#3465a4;stop-opacity:1"
         offset="0"
         id="stop3910-6" />
      <stop
         style="stop-color:#204a87;stop-opacity:1"
         offset="1"
         id="stop3912-2" />
    </linearGradient>
    <linearGradient
       xlink:href="#linearGradient4006"
       id="linearGradient4012"
       x1="21"
       y1="18"
       x2="28"
       y2="47"
       gradientUnits="userSpaceOnUse" />
    <linearGradient
       inkscape:collect="always"
       xlink:href="#linearGradient6"
       id="linearGradient7"
       x1="51.786469"
       y1="51.808727"
       x2="12.213036"
       y2="12.235295"
       gradientUnits="userSpaceOnUse" />
    <linearGradient
       inkscape:collect="always"
       xlink:href="#linearGradient6"
       id="linearGradient9"
       x1="51.788048"
       y1="51.786289"
       x2="12.211953"
       y2="12.210196"
       gradientUnits="userSpaceOnUse" />
  </defs>
  <metadata
     id="metadata2821">
    <rdf:RDF>
      <cc:Work
         rdf:about="">
        <dc:format>image/svg+xml</dc:format>
        <dc:type
           rdf:resource="http://purl.org/dc/dcmitype/StillImage" />
        <dc:creator>
          <cc:Agent>
            <dc:title>[jmaustpc]</dc:title>
          </cc:Agent>
        </dc:creator>
        <dc:title>PartDesign_Hole</dc:title>
        <dc:date>2013-03-17</dc:date>
        <dc:relation>https://www.freecad.org/wiki/index.php?title=Artwork</dc:relation>
        <dc:publisher>
          <cc:Agent>
            <dc:title>FreeCAD</dc:title>
          </cc:Agent>
        </dc:publisher>
        <dc:identifier>FreeCAD/src/Mod/PartDesign/Gui/Resources/icons/PartDesign_Hole.svg</dc:identifier>
        <dc:rights>
          <cc:Agent>
            <dc:title>FreeCAD LGPL2+</dc:title>
          </cc:Agent>
        </dc:rights>
        <cc:license>https://www.gnu.org/copyleft/lesser.html</cc:license>
        <dc:contributor>
          <cc:Agent>
            <dc:title>[agryson] Alexander Gryson</dc:title>
          </cc:Agent>
        </dc:contributor>
      </cc:Work>
    </rdf:RDF>
  </metadata>
  <g
     id="layer1">
    <g
       inkscape:groupmode="layer"
       id="layer2"
       inkscape:label="Layer 1">
      <path
         id="circle3"
         style="fill:none;fill-opacity:1;stroke:#0b1521;stroke-width:2;stroke-linecap:round;stroke-linejoin:round;stroke-dasharray:none;stroke-opacity:1"
         d="M 32 3 A 29 29 0 0 0 3 32 A 29 29 0 0 0 32 61 A 29 29 0 0 0 61 32 A 29 29 0 0 0 32 3 z M 32 20 A 12 12 0 0 1 44 32 A 12 12 0 0 1 32 44 A 12 12 0 0 1 20 32 A 12 12 0 0 1 32 20 z " />
      <path
         id="path5"
         style="fill:#a40000;fill-opacity:1;stroke:#ef2929;stroke-width:2;stroke-linecap:round;stroke-linejoin:round;stroke-dasharray:none;stroke-opacity:1"
         d="m 29.642578,5.1054688 c -3.789872,0.369055 -7.506476,1.4855677 -10.831265,3.3500722 -4.10222,2.302818 -7.58452,5.690816 -9.9941852,9.732653 -2.4131224,4.050299 -3.7335323,8.73788 -3.7993956,13.452459 -0.061486,4.713812 1.1374602,9.432411 3.4378088,13.548034 2.302818,4.10222 5.690816,7.58452 9.732653,9.994185 4.050299,2.413123 8.73788,3.733533 13.452459,3.799396 4.713812,0.06149 9.432411,-1.13746 13.548034,-3.437809 4.10222,-2.302818 7.58452,-5.690816 9.994185,-9.732653 2.413123,-4.050299 3.733533,-8.73788 3.799396,-13.452459 0.06149,-4.713812 -1.13746,-9.432411 -3.437809,-13.548034 -2.302818,-4.10222 -5.690816,-7.58452 -9.732653,-9.9941852 -4.050299,-2.4131224 -8.73788,-3.7335323 -13.452459,-3.7993956 -0.904494,-0.028904 -1.812006,0.065409 -2.716769,0.087737 z m 2.490234,12.8984372 c 3.522677,0.04792 7.002753,1.448279 9.542546,3.896042 3.052732,2.903016 4.6796,7.234647 4.241607,11.430253 -0.373373,4.298443 -2.8965,8.333033 -6.581369,10.574415 -3.63035,2.269664 -8.324803,2.715692 -12.316272,1.160909 -4.009032,-1.497876 -7.216257,-4.950838 -8.41669,-9.059873 -1.254669,-4.093974 -0.467271,-8.743532 2.065654,-12.1974 2.485428,-3.48462 6.648828,-5.691202 10.929664,-5.786553 0.178113,-0.01556 0.356103,-0.02128 0.53486,-0.01779 z" />
      <path
         id="path1"
         style="fill:none;fill-opacity:1;stroke:#0b1521;stroke-width:2;stroke-linecap:round;stroke-linejoin:round;stroke-dasharray:none;stroke-opacity:1"
         d="M 32 3 A 29 29 0 0 0 3 32 A 29 29 0 0 0 32 61 A 29 29 0 0 0 61 32 A 29 29 0 0 0 32 3 z M 20 20 L 44 20 L 44 44 L 20 44 L 20 20 z " />
      <path
         id="path4"
         style="fill:url(#linearGradient9);fill-opacity:1;stroke:#ef2929;stroke-width:2;stroke-linecap:round;stroke-linejoin:round;stroke-dasharray:none;stroke-opacity:1"
         d="m 29.642578,5.1054688 c -3.789872,0.369055 -7.506476,1.4855677 -10.831265,3.3500722 -4.10222,2.302818 -7.58452,5.690816 -9.9941852,9.732653 -2.4131224,4.050299 -3.7335323,8.73788 -3.7993956,13.452459 -0.061486,4.713812 1.1374602,9.432411 3.4378088,13.548034 2.302818,4.10222 5.690816,7.58452 9.732653,9.994185 4.050299,2.413123 8.73788,3.733533 13.452459,3.799396 4.713812,0.06149 9.432411,-1.13746 13.548034,-3.437809 4.10222,-2.302818 7.58452,-5.690816 9.994185,-9.732653 2.413123,-4.050299 3.733533,-8.73788 3.799396,-13.452459 0.06149,-4.713812 -1.13746,-9.432411 -3.437809,-13.548034 -2.302818,-4.10222 -5.690816,-7.58452 -9.732653,-9.9941852 C 41.761507,6.4040054 37.073926,5.0835955 32.359347,5.0177322 31.454853,4.988828 30.547341,5.0831414 29.642578,5.1054688 Z M 44,18 c 0.494174,0.320651 1.268661,0.379547 1.577946,0.872847 C 45.913135,19.58001 46.093528,20.315204 46,21.1 c 0,7.633333 0,15.266667 0,22.9 -0.320651,0.494174 -0.379547,1.268661 -0.872847,1.577946 C 44.41999,45.913135 43.684796,46.093528 42.9,46 35.266667,46 27.633333,46 20,46 19.505826,45.679349 18.731339,45.620453 18.422054,45.127153 18.086865,44.41999 17.906472,43.684796 18,42.9 18,35.266667 18,27.633333 18,20 18.320651,19.505826 18.379547,18.731339 18.872847,18.422054 19.58001,18.086865 20.315204,17.906472 21.1,18 c 7.633333,0 15.266667,0 22.9,0 z" />
      <path
         id="circle2"
         style="fill:none;fill-opacity:1;stroke:#0b1521;stroke-width:2;stroke-linecap:round;stroke-linejoin:round;stroke-dasharray:none;stroke-opacity:1"
         d="M 20 5.5996094 A 29 29 0 0 0 3 32 A 29 29 0 0 0 20 58.400391 L 20 5.5996094 z M 44 5.5996094 L 44 58.400391 A 29 29 0 0 0 61 32 A 29 29 0 0 0 44 5.5996094 z " />
      <path
         id="path3"
         style="fill:url(#linearGradient7);fill-opacity:1;stroke:#ef2929;stroke-width:2;stroke-linecap:round;stroke-linejoin:miter;stroke-dasharray:none;stroke-opacity:1"
         d="M 16.695312,9.7597656 C 14.125214,11.566612 11.855159,13.786347 10.016455,16.335214 7.4014269,20.058834 5.6881574,24.424921 5.1943888,28.954765 4.6343409,33.739941 5.413169,38.66742 7.3908496,43.059703 9.3350997,47.400612 12.454395,51.204699 16.329473,53.964337 16.851791,54.378618 17.443285,54.692355 18,55.056641 18,39.685547 18,24.314453 18,8.9433594 17.565104,9.2154948 17.130208,9.4876302 16.695312,9.7597656 Z M 46,55.056641 c 3.789567,-2.271372 6.961444,-5.524478 9.227143,-9.311295 2.349544,-4.009487 3.681269,-8.616828 3.750122,-13.268544 C 59.072245,27.68932 57.842875,22.891676 55.490042,18.72253 53.22671,14.728407 49.939092,11.309093 46,8.9433594 46,24.314453 46,39.685547 46,55.056641 Z" />
    </g>
  </g>
</svg>
