<svg xmlns="http://www.w3.org/2000/svg" xmlns:xlink="http://www.w3.org/1999/xlink" width="64" height="64"><defs><linearGradient id="b"><stop offset="0" style="stop-color:#a40000;stop-opacity:1"/><stop offset="1" style="stop-color:#ef2929;stop-opacity:1"/></linearGradient><linearGradient id="a"><stop offset="0" style="stop-color:#3465a4;stop-opacity:1"/><stop offset="1" style="stop-color:#204a87;stop-opacity:1"/></linearGradient><linearGradient xlink:href="#a" id="d" x1="48" x2="54" y1="16" y2="58" gradientUnits="userSpaceOnUse"/><linearGradient xlink:href="#b" id="c" x1="20.61" x2="20.68" y1="29.71" y2="47.1" gradientUnits="userSpaceOnUse"/></defs><g style="font-size:54.21519089000000236px;font-style:normal;font-variant:normal;font-weight:400;font-stretch:normal;fill:#ff2600;fill-opacity:1;stroke:#731200;font-family:Arial;-inkscape-font-specification:Arial;color:#000;fill-rule:nonzero;stroke-width:2.19132471;stroke-linecap:square;stroke-linejoin:round;stroke-miterlimit:4;stroke-opacity:1;stroke-dasharray:none;stroke-dashoffset:0;marker:none;visibility:visible;display:inline;overflow:visible;enable-background:accumulate"><path stroke="none" d="M30.55 10.72 7.47 8.43 7 49l32.17 1.34s-8.13-5.01-11.3-18.8c-1.3-5.6 2.68-20.82 2.68-20.82z" style="fill:url(#c);fill-opacity:1;stroke:none;stroke-linecap:round;stroke-linejoin:round"/><path d="M54.4 14.28s3.75 11.1 3.75 21.04-6.38 16.32-14.26 14.26c-7.87-2.07-15.31-11.7-14.25-21.75C30.7 17.8 32.13 8.71 32.13 8.71z" style="color:#000;font-style:normal;font-variant:normal;font-weight:400;font-stretch:normal;font-size:54.2152px;font-family:Arial;-inkscape-font-specification:Arial;display:inline;overflow:visible;visibility:visible;fill:none;stroke:#280000;stroke-width:2.00042;stroke-linecap:round;stroke-linejoin:round;stroke-miterlimit:4;stroke-dasharray:none;stroke-dashoffset:2.04;stroke-opacity:1;marker:none;enable-background:accumulate"/><path d="M51.02 15.52s6.07 8.9 6.07 18.69c0 9.77-6.67 16.42-14.94 14.43-9.36-2.26-15.34-11.44-14.47-19.38.38-3.89 1.3-11.01 1.3-11.01l1.1-7.99" style="font-size:54.2152px;display:inline;overflow:visible;fill:none;stroke:#ef2929;stroke-width:2.00022;stroke-linecap:round;stroke-dashoffset:2.04;enable-background:accumulate"/><path d="M37.23 7.58s7.66 7.95 7.66 18.42c0 10.47-8.42 19.34-18.86 19.37-11.82.04-19.37-8.22-18.28-16.95.48-4.26 1.65-12.13 1.65-12.13l1.39-8.84" style="font-size:54.2152px;display:inline;overflow:visible;fill:none;stroke:#ef2929;stroke-width:2.32564;stroke-linecap:round;stroke-dashoffset:2.04;enable-background:accumulate" transform="matrix(.792 .194 0 .934 3.42 1.84)"/><path d="M4.06 2.22v35.46l51.44 7.37V9.59Zm40.37 9.62s4.65 7.21 4.65 14.56c0 7.34-8.55 12.82-19.2 11.3-10.66-1.54-19.1-7.86-19.1-15.2 0-7.35 3.4-15.12 3.4-15.12" style="fill:#3465a4;stroke:#0b1521;stroke-width:2;stroke-linecap:round;stroke-linejoin:round;stroke-miterlimit:4;stroke-dasharray:none;stroke-dashoffset:2.04;stroke-opacity:1" transform="scale(.739 1.354)"/><path d="M6.11 3.61h47.45v31.43H6.11z" style="color:#000;font-style:normal;font-variant:normal;font-weight:400;font-stretch:normal;font-size:54.2152px;font-family:Arial;-inkscape-font-specification:Arial;display:inline;overflow:visible;visibility:visible;fill:none;stroke:#729fcf;stroke-width:2.01019;stroke-linecap:round;stroke-linejoin:round;stroke-miterlimit:4;stroke-dasharray:none;stroke-dashoffset:2.04;stroke-opacity:1;marker:none;enable-background:accumulate" transform="matrix(.731 .192 0 1.354 0 0)"/><path d="M40.46 8.06S45 17.06 45 27a18 18 0 0 1-18 18c-9.94 0-19.22-6.35-18-18 .53-5.06 1.5-10.26 1.5-10.26l1.62-7.47" style="fill:none;stroke:#729fcf;stroke-width:1.9982;stroke-linecap:round;stroke-linejoin:round;stroke-miterlimit:4;stroke-dasharray:none;stroke-dashoffset:2.04;stroke-opacity:1" transform="matrix(.88 .237 0 1.139 -1.75 -4.64)"/><path d="M3.26 2.56h20L61 12.88H41Z" style="fill:#729fcf;stroke:#0b1521;stroke-width:2;stroke-linecap:round;stroke-linejoin:round;stroke-opacity:1"/><path d="M41 12.7v48.68h20V12.7Z" style="fill:url(#d);fill-opacity:1;stroke:#0b1521;stroke-width:2;stroke-linecap:round;stroke-linejoin:round;stroke-opacity:1"/><path d="M57.77 11.23v32.26l22.1-.08V11.23z" style="color:#000;font-style:normal;font-variant:normal;font-weight:400;font-stretch:normal;font-size:54.2152px;font-family:Arial;-inkscape-font-specification:Arial;display:inline;overflow:visible;visibility:visible;fill:none;fill-opacity:1;fill-rule:nonzero;stroke:#3465a4;stroke-width:2;stroke-linecap:round;stroke-linejoin:round;stroke-miterlimit:4;stroke-dasharray:none;stroke-dashoffset:0;stroke-opacity:1;marker:none;enable-background:accumulate" transform="scale(.739 1.354)"/><path d="M39.26 5.95S44 16.06 44 26a18 18 0 0 1-18 18c-9.94 0-19.34-7.68-18-18 1.34-10.32 3.15-19.77 3.15-19.77Z" style="color:#000;font-style:normal;font-variant:normal;font-weight:400;font-stretch:normal;font-size:54.2152px;font-family:Arial;-inkscape-font-specification:Arial;display:inline;overflow:visible;visibility:visible;fill:none;stroke:#280000;stroke-width:2.24781;stroke-linecap:round;stroke-linejoin:round;stroke-miterlimit:4;stroke-dasharray:none;stroke-dashoffset:2.04;stroke-opacity:1;marker:none;enable-background:accumulate" transform="matrix(.792 .208 0 1 1.42 1.58)"/></g></svg>