<svg xmlns="http://www.w3.org/2000/svg" xmlns:xlink="http://www.w3.org/1999/xlink" width="64" height="64"><defs><linearGradient id="r"><stop offset="0" style="stop-color:#204a87;stop-opacity:1"/><stop offset="1" style="stop-color:#729fcf;stop-opacity:1"/></linearGradient><linearGradient id="s"><stop offset="0" style="stop-color:#a40000;stop-opacity:1"/><stop offset="1" style="stop-color:#e52929;stop-opacity:1"/></linearGradient><linearGradient id="q"><stop offset="0" style="stop-color:#a40000;stop-opacity:1"/><stop offset="1" style="stop-color:#ef2929;stop-opacity:1"/></linearGradient><linearGradient id="o"><stop offset="0" style="stop-color:#3465a4;stop-opacity:1"/><stop offset="1" style="stop-color:#204a87;stop-opacity:1"/></linearGradient><linearGradient id="n"><stop offset="0" style="stop-color:#204a87;stop-opacity:1"/><stop offset="1" style="stop-color:#3465a4;stop-opacity:1"/></linearGradient><linearGradient id="m"><stop offset="0" style="stop-color:#3465a4;stop-opacity:1"/><stop offset="1" style="stop-color:#729fcf;stop-opacity:1"/></linearGradient><linearGradient id="l"><stop offset="0" style="stop-color:#ef2929;stop-opacity:1"/><stop offset="1" style="stop-color:#a40000;stop-opacity:1"/></linearGradient><linearGradient id="a"><stop offset="0" style="stop-color:#c51900;stop-opacity:1"/><stop offset="1" style="stop-color:#ff5f00;stop-opacity:1"/></linearGradient><linearGradient id="b"><stop offset="0" style="stop-color:#c51900;stop-opacity:1"/><stop offset="1" style="stop-color:#ff5f00;stop-opacity:1"/></linearGradient><linearGradient id="c"><stop offset="0" style="stop-color:#ff2600;stop-opacity:1"/><stop offset="1" style="stop-color:#840000;stop-opacity:1"/></linearGradient><linearGradient id="d"><stop offset="0" style="stop-color:#ff2600;stop-opacity:1"/><stop offset="1" style="stop-color:#ff5f00;stop-opacity:1"/></linearGradient><linearGradient id="e"><stop offset="0" style="stop-color:#af7d00;stop-opacity:1"/><stop offset="1" style="stop-color:#ffed00;stop-opacity:1"/></linearGradient><linearGradient id="f"><stop offset="0" style="stop-color:#af7d00;stop-opacity:1"/><stop offset="1" style="stop-color:#ffed00;stop-opacity:1"/></linearGradient><linearGradient id="g"><stop offset="0" style="stop-color:#af7d00;stop-opacity:1"/><stop offset="1" style="stop-color:#ffed00;stop-opacity:1"/></linearGradient><linearGradient id="h"><stop offset="0" style="stop-color:#d82b1e;stop-opacity:1"/><stop offset="1" style="stop-color:#840000;stop-opacity:1"/></linearGradient><linearGradient id="i"><stop offset="0" style="stop-color:#d82b1e;stop-opacity:1"/><stop offset="1" style="stop-color:#840000;stop-opacity:1"/></linearGradient><linearGradient id="j"><stop offset="0" style="stop-color:#001ccc;stop-opacity:1"/><stop offset="1" style="stop-color:#00afff;stop-opacity:1"/></linearGradient><linearGradient id="k"><stop offset="0" style="stop-color:#af7d00;stop-opacity:1"/><stop offset="1" style="stop-color:#ffed00;stop-opacity:1"/></linearGradient><linearGradient id="p"><stop offset="0" style="stop-color:#3465a4;stop-opacity:1"/><stop offset="1" style="stop-color:#204a87;stop-opacity:1"/></linearGradient><linearGradient xlink:href="#r" id="u" x1="51.79" x2="12.21" y1="51.81" y2="12.24" gradientUnits="userSpaceOnUse"/><linearGradient xlink:href="#s" id="t" x1="51.79" x2="12.21" y1="51.79" y2="12.21" gradientUnits="userSpaceOnUse"/></defs><path d="M32 3A29 29 0 0 0 3 32a29 29 0 0 0 29 29 29 29 0 0 0 29-29A29 29 0 0 0 32 3zm0 17a12 12 0 0 1 12 12 12 12 0 0 1-12 12 12 12 0 0 1-12-12 12 12 0 0 1 12-12z" style="fill:none;fill-opacity:1;stroke:#0b1521;stroke-width:2;stroke-linecap:round;stroke-linejoin:round;stroke-dasharray:none;stroke-opacity:1"/><path d="M29.64 5.1c-3.79.37-7.5 1.5-10.83 3.36-4.1 2.3-7.58 5.69-10 9.73a27.16 27.16 0 0 0-3.8 13.45A27.19 27.19 0 0 0 8.47 45.2c2.3 4.1 5.69 7.58 9.73 10a27.16 27.16 0 0 0 13.45 3.8c4.71.05 9.43-1.15 13.55-3.45 4.1-2.3 7.58-5.69 10-9.73a27.16 27.16 0 0 0 3.8-13.45 27.19 27.19 0 0 0-3.45-13.55c-2.3-4.1-5.69-7.58-9.73-10a27.16 27.16 0 0 0-13.45-3.8c-.9-.02-1.81.07-2.72.1zm2.5 12.9a14 14 0 0 1 7.2 25.9A14 14 0 0 1 18.6 36a14 14 0 0 1 13.53-18z" style="fill:#a40000;fill-opacity:1;stroke:#ef2929;stroke-width:2;stroke-linecap:round;stroke-linejoin:round;stroke-dasharray:none;stroke-opacity:1"/><path d="M32 3A29 29 0 0 0 3 32a29 29 0 0 0 29 29 29 29 0 0 0 29-29A29 29 0 0 0 32 3zM20 20h24v24H20V20z" style="fill:none;fill-opacity:1;stroke:#0b1521;stroke-width:2;stroke-linecap:round;stroke-linejoin:round;stroke-dasharray:none;stroke-opacity:1"/><path d="M29.64 5.1c-3.79.37-7.5 1.5-10.83 3.36-4.1 2.3-7.58 5.69-10 9.73a27.16 27.16 0 0 0-3.8 13.45A27.19 27.19 0 0 0 8.47 45.2c2.3 4.1 5.69 7.58 9.73 10a27.16 27.16 0 0 0 13.45 3.8c4.71.05 9.43-1.15 13.55-3.45 4.1-2.3 7.58-5.69 10-9.73a27.16 27.16 0 0 0 3.8-13.45 27.19 27.19 0 0 0-3.45-13.55c-2.3-4.1-5.69-7.58-9.73-10a27.16 27.16 0 0 0-13.45-3.8c-.9-.02-1.81.07-2.72.1ZM44 18c.5.32 1.27.38 1.58.87.33.71.51 1.45.42 2.23V44c-.32.5-.38 1.27-.87 1.58-.71.33-1.45.51-2.23.42H20c-.5-.32-1.27-.38-1.58-.87A4.01 4.01 0 0 1 18 42.9V20c.32-.5.38-1.27.87-1.58.71-.33 1.45-.51 2.23-.42H44z" style="fill:url(#t);fill-opacity:1;stroke:#ef2929;stroke-width:2;stroke-linecap:round;stroke-linejoin:round;stroke-dasharray:none;stroke-opacity:1"/><path d="M20 5.6A29 29 0 0 0 3 32a29 29 0 0 0 17 26.4V5.6zm24 0v52.8A29 29 0 0 0 61 32 29 29 0 0 0 44 5.6z" style="fill:none;fill-opacity:1;stroke:#0b1521;stroke-width:2;stroke-linecap:round;stroke-linejoin:round;stroke-dasharray:none;stroke-opacity:1"/><path d="M16.7 9.76a28.3 28.3 0 0 0-6.68 6.58 27.23 27.23 0 0 0-4.83 12.61 26.93 26.93 0 0 0 11.14 25.01c.52.42 1.11.73 1.67 1.1V8.94l-1.3.82ZM46 55.06a27.06 27.06 0 0 0 9.23-9.31 27.06 27.06 0 0 0 .26-27.02c-2.26-4-5.55-7.42-9.49-9.79v46.12Z" style="fill:url(#u);fill-opacity:1;stroke:#729fcf;stroke-width:2;stroke-linecap:round;stroke-linejoin:miter;stroke-dasharray:none;stroke-opacity:1"/></svg>