<svg xmlns="http://www.w3.org/2000/svg" xmlns:xlink="http://www.w3.org/1999/xlink" width="64" height="64"><defs><linearGradient id="r"><stop offset="0" style="stop-color:#ef2929;stop-opacity:1"/><stop offset="1" style="stop-color:#840000;stop-opacity:1"/></linearGradient><linearGradient id="q"><stop offset="0" style="stop-color:#a40000;stop-opacity:1"/><stop offset="1" style="stop-color:#ef2929;stop-opacity:1"/></linearGradient><linearGradient id="o"><stop offset="0" style="stop-color:#3465a4;stop-opacity:1"/><stop offset="1" style="stop-color:#204a87;stop-opacity:1"/></linearGradient><linearGradient id="n"><stop offset="0" style="stop-color:#204a87;stop-opacity:1"/><stop offset="1" style="stop-color:#3465a4;stop-opacity:1"/></linearGradient><linearGradient id="m"><stop offset="0" style="stop-color:#3465a4;stop-opacity:1"/><stop offset="1" style="stop-color:#729fcf;stop-opacity:1"/></linearGradient><linearGradient id="l"><stop offset="0" style="stop-color:#ef2929;stop-opacity:1"/><stop offset="1" style="stop-color:#a40000;stop-opacity:1"/></linearGradient><linearGradient id="a"><stop offset="0" style="stop-color:#c51900;stop-opacity:1"/><stop offset="1" style="stop-color:#ff5f00;stop-opacity:1"/></linearGradient><linearGradient id="b"><stop offset="0" style="stop-color:#c51900;stop-opacity:1"/><stop offset="1" style="stop-color:#ff5f00;stop-opacity:1"/></linearGradient><linearGradient id="c"><stop offset="0" style="stop-color:#ff2600;stop-opacity:1"/><stop offset="1" style="stop-color:#840000;stop-opacity:1"/></linearGradient><linearGradient id="d"><stop offset="0" style="stop-color:#ff2600;stop-opacity:1"/><stop offset="1" style="stop-color:#ff5f00;stop-opacity:1"/></linearGradient><linearGradient id="e"><stop offset="0" style="stop-color:#af7d00;stop-opacity:1"/><stop offset="1" style="stop-color:#ffed00;stop-opacity:1"/></linearGradient><linearGradient id="f"><stop offset="0" style="stop-color:#af7d00;stop-opacity:1"/><stop offset="1" style="stop-color:#ffed00;stop-opacity:1"/></linearGradient><linearGradient id="g"><stop offset="0" style="stop-color:#af7d00;stop-opacity:1"/><stop offset="1" style="stop-color:#ffed00;stop-opacity:1"/></linearGradient><linearGradient id="h"><stop offset="0" style="stop-color:#d82b1e;stop-opacity:1"/><stop offset="1" style="stop-color:#840000;stop-opacity:1"/></linearGradient><linearGradient id="i"><stop offset="0" style="stop-color:#d82b1e;stop-opacity:1"/><stop offset="1" style="stop-color:#840000;stop-opacity:1"/></linearGradient><linearGradient id="j"><stop offset="0" style="stop-color:#001ccc;stop-opacity:1"/><stop offset="1" style="stop-color:#00afff;stop-opacity:1"/></linearGradient><linearGradient id="k"><stop offset="0" style="stop-color:#af7d00;stop-opacity:1"/><stop offset="1" style="stop-color:#ffed00;stop-opacity:1"/></linearGradient><linearGradient xlink:href="#o" id="u" x1="48" x2="54" y1="16" y2="58" gradientUnits="userSpaceOnUse"/><linearGradient id="p"><stop offset="0" style="stop-color:#3465a4;stop-opacity:1"/><stop offset="1" style="stop-color:#204a87;stop-opacity:1"/></linearGradient><linearGradient xlink:href="#q" id="s" x1="21" x2="28" y1="18" y2="47" gradientUnits="userSpaceOnUse"/><linearGradient xlink:href="#r" id="t" x1="33.93" x2="33.05" y1="25.51" y2="34.36" gradientUnits="userSpaceOnUse"/></defs><g style="color:#000;font-style:normal;font-variant:normal;font-weight:400;font-stretch:normal;font-size:54.2152px;font-family:Arial;-inkscape-font-specification:Arial;display:inline;overflow:visible;visibility:visible;fill:#ff2600;fill-opacity:1;fill-rule:nonzero;stroke:#731200;stroke-width:2.19132;stroke-linecap:square;stroke-linejoin:round;stroke-miterlimit:4;stroke-dasharray:none;stroke-dashoffset:0;stroke-opacity:1;marker:none;enable-background:accumulate"><path stroke="none" d="M34 15 7 14l.83 35.25S40.42 52.12 40 50.59c0 0 1.75-8.58-2.19-9.91C30.19 38.1 28 38 27 31c-2-14 7-16 7-16Z" style="fill:url(#s);fill-opacity:1;stroke:none;stroke-linecap:round;stroke-linejoin:round"/><path stroke="none" d="m13.76 26.03 24.26-.28 22.37 8.27-42.67.79z" style="fill:url(#t);stroke:none;stroke-width:1px;stroke-linecap:butt;stroke-linejoin:miter;stroke-opacity:1" transform="scale(.739 1.354)"/><path d="M43.69 26c0 9.94-7.92 18-17.69 18-2.44 0-4.77-.5-6.88-1.41-2.12-.92 3.6-7.11 2-8.74s-11.87-2.45-12-2.95c-.6-2.27-.4-3.1-.4-5.59C8.72 15.37 16.23 8 26 8c9.77 0 17.69 8.06 17.69 18z" style="display:inline;overflow:visible;fill:none;stroke:#ef2929;stroke-width:2.24781;stroke-linecap:round;stroke-dashoffset:2.04;enable-background:accumulate" transform="matrix(.792 .208 0 1 19.42 1.18)"/><path d="M44.89 26A18.92 18.92 0 0 1 26 44.96c-2.6 0-4.94 1.25-7.2.3-2.25-.97 1.34-5.37-1.3-9.4-1.52-2.31-8.41-.41-8.73-1.72-.57-2.43-1.66-5.52-1.66-8.14A18.92 18.92 0 0 1 26 7.04 18.92 18.92 0 0 1 44.89 26Z" style="display:inline;overflow:visible;fill:none;stroke:#ef2929;stroke-width:2.32564;stroke-linecap:round;stroke-dashoffset:2.04;enable-background:accumulate" transform="matrix(.792 .194 0 .934 3.42 1.84)"/><path d="M70.33 26.5c0 1.83 5.21 4.04 4.24 5.49a11.6 11.6 0 0 1-4.14 3.63 18.46 18.46 0 0 1-6.13 1.98c-2.3.34-4.84.35-7.5-.04a29.31 29.31 0 0 1-7.52-2.12c-2.3-1 .84-6.46-1.3-7.74-1.1-.66-8.93-1.54-9.78-2.9-1.08-1.7-.57-2.32-.7-3.3-.23-1.83.54-3.5 1.52-4.96a11.6 11.6 0 0 1 4.13-3.63c1.75-.95 5.92 1.73 8.23 1.4 2.3-.35 2.75-3.72 5.41-3.34 2.67.38 5.2 1.12 7.51 2.12 2.3 1 4.39 2.28 6.13 3.73a17.7 17.7 0 0 1 4.14 4.82c.97 1.73-4.24 3.02-4.24 4.85z" style="color:#000;font-style:normal;font-variant:normal;font-weight:400;font-stretch:normal;font-size:54.2152px;font-family:Arial;-inkscape-font-specification:Arial;display:inline;overflow:visible;visibility:visible;fill:none;stroke:#280000;stroke-width:2;stroke-linecap:round;stroke-linejoin:round;stroke-miterlimit:4;stroke-dasharray:none;stroke-dashoffset:2.04;stroke-opacity:1;marker:none;enable-background:accumulate;paint-order:markers fill stroke" transform="scale(.739 1.354)"/><path d="M4.06 2.22v35.46l51.44 7.37V9.59Zm25.72 8.11c5.33.77 16.18 5.78 17.6 9.17 1.57 3.73-2.08 6.01-1.97 7.1.06.6 4.12 6.18.62 8.86-3.51 2.67-12.39 3.18-17.6 2.22-11.46-2.13-7.44-6.11-8.12-7.4-.57-1.05-10.25-.67-10.83-7.01-.32-3.45 2.7-7.4 2.7-9.23 0-3.68 7.5-.64 12.19-1.48 1.98-.36.08-2.99 5.41-2.23z" style="fill:#3465a4;stroke:#0b1521;stroke-width:2;stroke-linecap:round;stroke-linejoin:round;stroke-miterlimit:4;stroke-dasharray:none;stroke-dashoffset:2.04;stroke-opacity:1" transform="scale(.739 1.354)"/><path d="M6.11 3.61h47.45v31.43H6.11z" style="color:#000;font-style:normal;font-variant:normal;font-weight:400;font-stretch:normal;font-size:54.2152px;font-family:Arial;-inkscape-font-specification:Arial;display:inline;overflow:visible;visibility:visible;fill:none;stroke:#729fcf;stroke-width:2.01019;stroke-linecap:round;stroke-linejoin:round;stroke-miterlimit:4;stroke-dasharray:none;stroke-dashoffset:2.04;stroke-opacity:1;marker:none;enable-background:accumulate" transform="matrix(.731 .192 0 1.354 0 0)"/><path d="M40.13 27.34c-.13 1.36 4.62 3.26 3.46 6.67-.74 2.16-2.23 4.09-3.86 5.72A18.03 18.03 0 0 1 27 45c-2.49 0-5.01-.33-7-1.41-4.37-2.37.32-5.52-1.3-7.15-1.64-1.63-6.48 1.1-8.29-2.43C9.35 31.92 9 29.49 9 27a17.94 17.94 0 0 1 5.27-12.73c1.63-1.63 5.53 1.3 7.68.4C24.11 13.74 24.51 9 27 9a17.94 17.94 0 0 1 12.73 5.27A20.9 20.9 0 0 1 43.59 20c1.3 2.7-3.37 6.37-3.46 7.35z" style="fill:none;stroke:#729fcf;stroke-width:1.9982;stroke-linecap:round;stroke-linejoin:round;stroke-miterlimit:4;stroke-dasharray:none;stroke-dashoffset:2.04;stroke-opacity:1" transform="matrix(.88 .237 0 1.139 -1.75 -4.64)"/><path d="M3.26 2.56h20L61 12.88H41Z" style="fill:#729fcf;stroke:#0b1521;stroke-width:2;stroke-linecap:round;stroke-linejoin:round;stroke-opacity:1"/><path d="M41 12.7v48.68h20V12.7Z" style="fill:url(#u);fill-opacity:1;stroke:#0b1521;stroke-width:2;stroke-linecap:round;stroke-linejoin:round;stroke-opacity:1"/><path d="M57.77 11.23v32.26l22.1-.08V11.23z" style="color:#000;font-style:normal;font-variant:normal;font-weight:400;font-stretch:normal;font-size:54.2152px;font-family:Arial;-inkscape-font-specification:Arial;display:inline;overflow:visible;visibility:visible;fill:none;fill-opacity:1;fill-rule:nonzero;stroke:#3465a4;stroke-width:2;stroke-linecap:round;stroke-linejoin:round;stroke-miterlimit:4;stroke-dasharray:none;stroke-dashoffset:0;stroke-opacity:1;marker:none;enable-background:accumulate" transform="scale(.739 1.354)"/><path d="M38.63 26.39c0 2.48 4.87 4.46 3.96 6.62a18.03 18.03 0 0 1-23.6 9.58c-2.15-.92 1.06-6.37-.57-8s-8.1.57-9-1.58a17.94 17.94 0 0 1 0-14.02c.9-2.15 2.22-4.09 3.85-5.72s5.52 1.2 7.68.29C23.1 12.65 23.5 8 26 8a17.94 17.94 0 0 1 16.59 11c.9 2.15-3.96 4.9-3.96 7.39z" style="color:#000;font-style:normal;font-variant:normal;font-weight:400;font-stretch:normal;font-size:54.2152px;font-family:Arial;-inkscape-font-specification:Arial;display:inline;overflow:visible;visibility:visible;fill:none;stroke:#280000;stroke-width:2.24781;stroke-linecap:round;stroke-linejoin:round;stroke-miterlimit:4;stroke-dasharray:none;stroke-dashoffset:2.04;stroke-opacity:1;marker:none;enable-background:accumulate" transform="matrix(.792 .208 0 1 1.42 1.58)"/><path d="M24.37 14.4h14.89" style="fill:none;stroke:#280000;stroke-width:1.6;stroke-linecap:round;stroke-linejoin:miter;stroke-dasharray:none;stroke-opacity:1" transform="scale(.739 1.354)"/></g></svg>