<svg xmlns="http://www.w3.org/2000/svg" xmlns:xlink="http://www.w3.org/1999/xlink" width="64" height="64"><defs><linearGradient id="q"><stop offset="0" style="stop-color:#a40000;stop-opacity:1"/><stop offset="1" style="stop-color:#ef2929;stop-opacity:1"/></linearGradient><linearGradient id="o"><stop offset="0" style="stop-color:#3465a4;stop-opacity:1"/><stop offset="1" style="stop-color:#204a87;stop-opacity:1"/></linearGradient><linearGradient id="n"><stop offset="0" style="stop-color:#204a87;stop-opacity:1"/><stop offset="1" style="stop-color:#3465a4;stop-opacity:1"/></linearGradient><linearGradient id="m"><stop offset="0" style="stop-color:#3465a4;stop-opacity:1"/><stop offset="1" style="stop-color:#729fcf;stop-opacity:1"/></linearGradient><linearGradient id="l"><stop offset="0" style="stop-color:#ef2929;stop-opacity:1"/><stop offset="1" style="stop-color:#a40000;stop-opacity:1"/></linearGradient><linearGradient id="a"><stop offset="0" style="stop-color:#c51900;stop-opacity:1"/><stop offset="1" style="stop-color:#ff5f00;stop-opacity:1"/></linearGradient><linearGradient id="b"><stop offset="0" style="stop-color:#c51900;stop-opacity:1"/><stop offset="1" style="stop-color:#ff5f00;stop-opacity:1"/></linearGradient><linearGradient id="c"><stop offset="0" style="stop-color:#ff2600;stop-opacity:1"/><stop offset="1" style="stop-color:#840000;stop-opacity:1"/></linearGradient><linearGradient id="d"><stop offset="0" style="stop-color:#ff2600;stop-opacity:1"/><stop offset="1" style="stop-color:#ff5f00;stop-opacity:1"/></linearGradient><linearGradient id="e"><stop offset="0" style="stop-color:#af7d00;stop-opacity:1"/><stop offset="1" style="stop-color:#ffed00;stop-opacity:1"/></linearGradient><linearGradient id="f"><stop offset="0" style="stop-color:#af7d00;stop-opacity:1"/><stop offset="1" style="stop-color:#ffed00;stop-opacity:1"/></linearGradient><linearGradient id="g"><stop offset="0" style="stop-color:#af7d00;stop-opacity:1"/><stop offset="1" style="stop-color:#ffed00;stop-opacity:1"/></linearGradient><linearGradient id="h"><stop offset="0" style="stop-color:#d82b1e;stop-opacity:1"/><stop offset="1" style="stop-color:#840000;stop-opacity:1"/></linearGradient><linearGradient id="i"><stop offset="0" style="stop-color:#d82b1e;stop-opacity:1"/><stop offset="1" style="stop-color:#840000;stop-opacity:1"/></linearGradient><linearGradient id="j"><stop offset="0" style="stop-color:#001ccc;stop-opacity:1"/><stop offset="1" style="stop-color:#00afff;stop-opacity:1"/></linearGradient><linearGradient id="k"><stop offset="0" style="stop-color:#af7d00;stop-opacity:1"/><stop offset="1" style="stop-color:#ffed00;stop-opacity:1"/></linearGradient><linearGradient xlink:href="#o" id="s" x1="48" x2="54" y1="16" y2="58" gradientUnits="userSpaceOnUse"/><linearGradient id="p"><stop offset="0" style="stop-color:#3465a4;stop-opacity:1"/><stop offset="1" style="stop-color:#204a87;stop-opacity:1"/></linearGradient><linearGradient xlink:href="#q" id="r" x1="21" x2="28" y1="18" y2="47" gradientUnits="userSpaceOnUse"/></defs><g style="font-size:54.21519089000000236px;font-style:normal;font-variant:normal;font-weight:400;font-stretch:normal;fill:#ff2600;fill-opacity:1;stroke:#731200;font-family:Arial;-inkscape-font-specification:Arial;color:#000;fill-rule:nonzero;stroke-width:2.19132471;stroke-linecap:square;stroke-linejoin:round;stroke-miterlimit:4;stroke-opacity:1;stroke-dasharray:none;stroke-dashoffset:0;marker:none;visibility:visible;display:inline;overflow:visible;enable-background:accumulate"><g style="stroke-linejoin:round;stroke-linecap:round"><path d="M131.3 6.65V42.1l51.45 7.37V14.02L131.3 6.65zm25.73 8.12c10.65 1.52 19.29 8.71 19.29 16.06 0 7.34-8.64 12.06-19.3 10.53-10.65-1.53-19.28-8.72-19.28-16.06 0-7.34 8.63-12.06 19.29-10.53z" style="font-size:54.21519089px;font-style:normal;font-variant:normal;font-weight:400;font-stretch:normal;color:#000;fill:#3465a4;fill-opacity:1;fill-rule:nonzero;stroke:#0b1521;stroke-width:1.99999988;stroke-linecap:round;stroke-linejoin:round;stroke-miterlimit:4;stroke-opacity:1;stroke-dasharray:none;stroke-dashoffset:2.04;marker:none;visibility:visible;display:inline;overflow:visible;enable-background:accumulate;font-family:Arial;-inkscape-font-specification:Arial" transform="matrix(.739 0 0 1.354 -74 -5.98)"/><path d="M135.39-10.63h46.5v32.35h-46.5z" style="font-size:54.21519089px;font-style:normal;font-variant:normal;font-weight:400;font-stretch:normal;color:#000;fill:none;stroke:#729fcf;stroke-width:2.01018834;stroke-linecap:round;stroke-linejoin:round;stroke-miterlimit:4;stroke-opacity:1;stroke-dasharray:none;stroke-dashoffset:2.04;marker:none;visibility:visible;display:inline;overflow:visible;enable-background:accumulate;font-family:Arial;-inkscape-font-specification:Arial" transform="matrix(.731 .192 0 1.354 -74 -5.98)"/><path d="M44 26c0 9.94-9.89 14.32-19.83 14.32-9.94 0-17.1-3.18-16.17-13.29.17-1.9 7.84-8.96 11.1-12.21C22.36 11.56 21.03 8 26 8a18 18 0 0 1 18 18z" style="color:#000;font-style:normal;font-variant:normal;font-weight:400;font-stretch:normal;font-size:54.2152px;font-family:Arial;-inkscape-font-specification:Arial;display:inline;overflow:visible;visibility:visible;fill:none;stroke:#280000;stroke-width:2.24781;stroke-linecap:round;stroke-linejoin:round;stroke-miterlimit:4;stroke-dasharray:none;stroke-dashoffset:2.04;stroke-opacity:1;marker:none;enable-background:accumulate" transform="matrix(.792 .208 0 1 21.42 .6)"/></g><path stroke="none" d="M43.1 19.82 7 14v35l32.17 1.34S29 45 27 31s16.1-11.18 16.1-11.18Z" style="fill:url(#r);fill-opacity:1;stroke:none;stroke-linecap:round;stroke-linejoin:round"/><path d="M75.66 25.74c0 7.23-9.06 11.87-20.24 10.38-11.17-1.5-20.86-7.13-19.58-14.32.51-2.88 5.51-4.73 5.51-4.73l13.8-5.14s20.51 6.58 20.51 13.81z" style="font-size:54.2152px;display:inline;overflow:visible;fill:none;stroke:#ef2929;stroke-width:2;stroke-linecap:round;stroke-dashoffset:2.04;enable-background:accumulate" transform="scale(.739 1.354)"/><path d="M44.89 26c0 10.47-8.43 19.37-18.86 19.37S6.56 39.1 7.75 28.42c.48-4.26 5.12-8.32 5.12-8.32L25.74 9.97S44.89 15.53 44.89 26z" style="font-size:54.2152px;display:inline;overflow:visible;fill:none;stroke:#ef2929;stroke-width:2.32564;stroke-linecap:round;stroke-dashoffset:2.04;enable-background:accumulate" transform="matrix(.792 .194 0 .934 3.42 1.84)"/><path d="M4.06 2.22v35.46l51.44 7.37V9.59Zm25.72 8.11s19.3 8.72 19.3 16.07c0 7.34-8.55 12.82-19.2 11.3-10.66-1.54-19.1-7.86-19.1-15.2 0-7.35 19-12.17 19-12.17z" style="fill:#3465a4;stroke:#0b1521;stroke-width:2;stroke-linecap:round;stroke-linejoin:round;stroke-miterlimit:4;stroke-dasharray:none;stroke-dashoffset:2.04;stroke-opacity:1" transform="scale(.739 1.354)"/><path d="M6.11 3.61h47.45v31.43H6.11z" style="color:#000;font-style:normal;font-variant:normal;font-weight:400;font-stretch:normal;font-size:54.2152px;font-family:Arial;-inkscape-font-specification:Arial;display:inline;overflow:visible;visibility:visible;fill:none;stroke:#729fcf;stroke-width:2.01019;stroke-linecap:round;stroke-linejoin:round;stroke-miterlimit:4;stroke-dasharray:none;stroke-dashoffset:2.04;stroke-opacity:1;marker:none;enable-background:accumulate" transform="matrix(.731 .192 0 1.354 0 0)"/><path d="M45 27a18 18 0 0 1-18 18c-9.94 0-19.22-6.35-18-18 .53-5.06 6.5-9.3 6.5-9.3L27 9s18 8.06 18 18z" style="fill:none;stroke:#729fcf;stroke-width:1.9982;stroke-linecap:round;stroke-linejoin:round;stroke-miterlimit:4;stroke-dasharray:none;stroke-dashoffset:2.04;stroke-opacity:1" transform="matrix(.88 .237 0 1.139 -1.75 -4.64)"/><path d="M3.26 2.56h20L61 12.88H41Z" style="fill:#729fcf;stroke:#0b1521;stroke-width:2;stroke-linecap:round;stroke-linejoin:round;stroke-opacity:1"/><path d="M41 12.7v48.68h20V12.7Z" style="fill:url(#s);fill-opacity:1;stroke:#0b1521;stroke-width:2;stroke-linecap:round;stroke-linejoin:round;stroke-opacity:1"/><path d="M57.77 11.23v32.26l22.1-.08V11.23z" style="color:#000;font-style:normal;font-variant:normal;font-weight:400;font-stretch:normal;font-size:54.2152px;font-family:Arial;-inkscape-font-specification:Arial;display:inline;overflow:visible;visibility:visible;fill:none;fill-opacity:1;fill-rule:nonzero;stroke:#3465a4;stroke-width:2;stroke-linecap:round;stroke-linejoin:round;stroke-miterlimit:4;stroke-dasharray:none;stroke-dashoffset:0;stroke-opacity:1;marker:none;enable-background:accumulate" transform="scale(.739 1.354)"/><path d="M44 26a18 18 0 0 1-18 18c-9.94 0-19.53-7.81-18-18 .83-5.49 5.53-8.55 5.53-8.55L26 8s18 8.06 18 18z" style="color:#000;font-style:normal;font-variant:normal;font-weight:400;font-stretch:normal;font-size:54.2152px;font-family:Arial;-inkscape-font-specification:Arial;display:inline;overflow:visible;visibility:visible;fill:none;stroke:#280000;stroke-width:2.24781;stroke-linecap:round;stroke-linejoin:round;stroke-miterlimit:4;stroke-dasharray:none;stroke-dashoffset:2.04;stroke-opacity:1;marker:none;enable-background:accumulate" transform="matrix(.792 .208 0 1 1.42 1.58)"/></g></svg>