<?xml version="1.0" encoding="UTF-8" standalone="no"?>
<!-- Created with Inkscape (http://www.inkscape.org/) -->

<svg
   width="64px"
   height="64px"
   id="svg2816"
   version="1.1"
   sodipodi:docname="ffDesign_RibThreads.svg"
   inkscape:version="1.4.1 (93de688d07, 2025-03-30)"
   xmlns:inkscape="http://www.inkscape.org/namespaces/inkscape"
   xmlns:sodipodi="http://sodipodi.sourceforge.net/DTD/sodipodi-0.dtd"
   xmlns:xlink="http://www.w3.org/1999/xlink"
   xmlns="http://www.w3.org/2000/svg"
   xmlns:svg="http://www.w3.org/2000/svg"
   xmlns:rdf="http://www.w3.org/1999/02/22-rdf-syntax-ns#"
   xmlns:cc="http://creativecommons.org/ns#"
   xmlns:dc="http://purl.org/dc/elements/1.1/">
  <sodipodi:namedview
     id="namedview1"
     pagecolor="#ffffff"
     bordercolor="#666666"
     borderopacity="1.0"
     inkscape:showpageshadow="2"
     inkscape:pageopacity="0.0"
     inkscape:pagecheckerboard="0"
     inkscape:deskcolor="#d1d1d1"
     inkscape:zoom="10.770961"
     inkscape:cx="18.568444"
     inkscape:cy="39.086576"
     inkscape:window-width="2560"
     inkscape:window-height="1384"
     inkscape:window-x="1920"
     inkscape:window-y="0"
     inkscape:window-maximized="1"
     inkscape:current-layer="text3796"
     showgrid="true">
    <inkscape:grid
       id="grid1"
       units="px"
       originx="0"
       originy="0"
       spacingx="1"
       spacingy="1"
       empcolor="#3f3fff"
       empopacity="0.25098039"
       color="#3f3fff"
       opacity="0.1254902"
       empspacing="8"
       enabled="true"
       visible="true" />
  </sodipodi:namedview>
  <defs
     id="defs2818">
    <linearGradient
       id="linearGradient8">
      <stop
         style="stop-color:#ef2929;stop-opacity:1;"
         offset="0"
         id="stop7" />
      <stop
         style="stop-color:#840000;stop-opacity:1;"
         offset="1"
         id="stop8" />
    </linearGradient>
    <linearGradient
       id="linearGradient5">
      <stop
         style="stop-color:#c4a000;stop-opacity:1;"
         offset="0"
         id="stop4" />
      <stop
         style="stop-color:#fce94f;stop-opacity:1;"
         offset="1"
         id="stop5" />
    </linearGradient>
    <linearGradient
       id="linearGradient4006">
      <stop
         style="stop-color:#a40000;stop-opacity:1"
         offset="0"
         id="stop4008" />
      <stop
         style="stop-color:#ef2929;stop-opacity:1"
         offset="1"
         id="stop4010" />
    </linearGradient>
    <linearGradient
       id="linearGradient3908">
      <stop
         style="stop-color:#3465a4;stop-opacity:1"
         offset="0"
         id="stop3910" />
      <stop
         style="stop-color:#204a87;stop-opacity:1"
         offset="1"
         id="stop3912" />
    </linearGradient>
    <linearGradient
       id="linearGradient3867">
      <stop
         style="stop-color:#204a87;stop-opacity:1;"
         offset="0"
         id="stop3869" />
      <stop
         style="stop-color:#3465a4;stop-opacity:1"
         offset="1"
         id="stop3871" />
    </linearGradient>
    <linearGradient
       id="linearGradient3859">
      <stop
         style="stop-color:#3465a4;stop-opacity:1;"
         offset="0"
         id="stop3861" />
      <stop
         style="stop-color:#729fcf;stop-opacity:1"
         offset="1"
         id="stop3863" />
    </linearGradient>
    <linearGradient
       id="linearGradient4009">
      <stop
         style="stop-color:#ef2929;stop-opacity:1"
         offset="0"
         id="stop4011" />
      <stop
         style="stop-color:#a40000;stop-opacity:1"
         offset="1"
         id="stop4013" />
    </linearGradient>
    <linearGradient
       id="linearGradient4407">
      <stop
         id="stop4409"
         offset="0"
         style="stop-color:#001ccc;stop-opacity:0" />
      <stop
         id="stop4411"
         offset="1"
         style="stop-color:#00afff;stop-opacity:1;" />
    </linearGradient>
    <linearGradient
       id="linearGradient3669">
      <stop
         style="stop-color:#001ccc;stop-opacity:1;"
         offset="0"
         id="stop3671" />
      <stop
         style="stop-color:#00afff;stop-opacity:1;"
         offset="1"
         id="stop3673" />
    </linearGradient>
    <linearGradient
       id="linearGradient3602">
      <stop
         style="stop-color:#ff2600;stop-opacity:1;"
         offset="0"
         id="stop3604" />
      <stop
         style="stop-color:#ff5f00;stop-opacity:1;"
         offset="1"
         id="stop3606" />
    </linearGradient>
    <linearGradient
       xlink:href="#linearGradient3602-7"
       id="linearGradient3608-5"
       x1="3.909091"
       y1="14.363636"
       x2="24.81818"
       y2="14.363636"
       gradientUnits="userSpaceOnUse" />
    <linearGradient
       id="linearGradient3602-7">
      <stop
         style="stop-color:#c51900;stop-opacity:1;"
         offset="0"
         id="stop3604-1" />
      <stop
         style="stop-color:#ff5f00;stop-opacity:1;"
         offset="1"
         id="stop3606-3" />
    </linearGradient>
    <linearGradient
       xlink:href="#linearGradient3602-5"
       id="linearGradient3608-1"
       x1="3.909091"
       y1="14.363636"
       x2="24.81818"
       y2="14.363636"
       gradientUnits="userSpaceOnUse" />
    <linearGradient
       id="linearGradient3602-5">
      <stop
         style="stop-color:#c51900;stop-opacity:1;"
         offset="0"
         id="stop3604-9" />
      <stop
         style="stop-color:#ff5f00;stop-opacity:1;"
         offset="1"
         id="stop3606-9" />
    </linearGradient>
    <linearGradient
       y2="14.363636"
       x2="24.81818"
       y1="14.363636"
       x1="3.909091"
       gradientUnits="userSpaceOnUse"
       id="linearGradient3686"
       xlink:href="#linearGradient3602-5" />
    <linearGradient
       xlink:href="#linearGradient3602-58"
       id="linearGradient3608-8"
       x1="3.909091"
       y1="14.363636"
       x2="24.81818"
       y2="14.363636"
       gradientUnits="userSpaceOnUse" />
    <linearGradient
       id="linearGradient3602-58">
      <stop
         style="stop-color:#ff2600;stop-opacity:1;"
         offset="0"
         id="stop3604-2" />
      <stop
         style="stop-color:#840000;stop-opacity:1;"
         offset="1"
         id="stop3606-2" />
    </linearGradient>
    <linearGradient
       y2="14.363636"
       x2="24.81818"
       y1="14.363636"
       x1="3.909091"
       gradientUnits="userSpaceOnUse"
       id="linearGradient3726"
       xlink:href="#linearGradient3602-58" />
    <linearGradient
       id="linearGradient3602-1">
      <stop
         style="stop-color:#ff2600;stop-opacity:1;"
         offset="0"
         id="stop3604-8" />
      <stop
         style="stop-color:#ff5f00;stop-opacity:1;"
         offset="1"
         id="stop3606-96" />
    </linearGradient>
    <linearGradient
       xlink:href="#linearGradient3602-1"
       id="linearGradient2875"
       gradientUnits="userSpaceOnUse"
       x1="3.909091"
       y1="14.363636"
       x2="24.81818"
       y2="14.363636" />
    <linearGradient
       id="linearGradient3602-1-5">
      <stop
         style="stop-color:#ff2600;stop-opacity:1;"
         offset="0"
         id="stop3604-8-3" />
      <stop
         style="stop-color:#ff5f00;stop-opacity:1;"
         offset="1"
         id="stop3606-96-8" />
    </linearGradient>
    <linearGradient
       id="linearGradient3602-1-8">
      <stop
         style="stop-color:#ff2600;stop-opacity:1;"
         offset="0"
         id="stop3604-8-5" />
      <stop
         style="stop-color:#ff5f00;stop-opacity:1;"
         offset="1"
         id="stop3606-96-2" />
    </linearGradient>
    <linearGradient
       id="linearGradient3669-2">
      <stop
         style="stop-color:#af7d00;stop-opacity:1;"
         offset="0"
         id="stop3671-7" />
      <stop
         style="stop-color:#ffed00;stop-opacity:1;"
         offset="1"
         id="stop3673-5" />
    </linearGradient>
    <linearGradient
       gradientTransform="matrix(0.73872768,0,0,1.3536788,-2.25,-1.9999999)"
       y2="1.8468192"
       x2="48.259949"
       y1="33.61211"
       x1="34.290413"
       gradientUnits="userSpaceOnUse"
       id="linearGradient3698"
       xlink:href="#linearGradient3669-2" />
    <linearGradient
       id="linearGradient3669-22">
      <stop
         style="stop-color:#af7d00;stop-opacity:1;"
         offset="0"
         id="stop3671-8" />
      <stop
         style="stop-color:#ffed00;stop-opacity:1;"
         offset="1"
         id="stop3673-4" />
    </linearGradient>
    <linearGradient
       gradientTransform="matrix(0.73872768,0,0,1.3536788,-2.25,-1.9999999)"
       y2="1.8468192"
       x2="48.259949"
       y1="33.61211"
       x1="34.290413"
       gradientUnits="userSpaceOnUse"
       id="linearGradient3698-3"
       xlink:href="#linearGradient3669-22" />
    <linearGradient
       id="linearGradient3669-0">
      <stop
         style="stop-color:#af7d00;stop-opacity:1;"
         offset="0"
         id="stop3671-9" />
      <stop
         style="stop-color:#ffed00;stop-opacity:1;"
         offset="1"
         id="stop3673-1" />
    </linearGradient>
    <linearGradient
       gradientTransform="matrix(0.73872768,0,0,1.3536788,-2.25,-1.9999999)"
       y2="1.8468192"
       x2="48.259949"
       y1="33.61211"
       x1="34.290413"
       gradientUnits="userSpaceOnUse"
       id="linearGradient3698-9"
       xlink:href="#linearGradient3669-0" />
    <linearGradient
       xlink:href="#linearGradient3602-58-5"
       id="linearGradient4030-1"
       x1="42.239037"
       y1="23.095947"
       x2="36.44146"
       y2="21.198208"
       gradientUnits="userSpaceOnUse" />
    <linearGradient
       id="linearGradient3602-58-5">
      <stop
         style="stop-color:#d82b1e;stop-opacity:1;"
         offset="0"
         id="stop3604-2-5" />
      <stop
         style="stop-color:#840000;stop-opacity:1;"
         offset="1"
         id="stop3606-2-4" />
    </linearGradient>
    <linearGradient
       xlink:href="#linearGradient3602-58-50"
       id="linearGradient4030-6"
       x1="42.239037"
       y1="23.095947"
       x2="36.44146"
       y2="21.198208"
       gradientUnits="userSpaceOnUse" />
    <linearGradient
       id="linearGradient3602-58-50">
      <stop
         style="stop-color:#d82b1e;stop-opacity:1;"
         offset="0"
         id="stop3604-2-8" />
      <stop
         style="stop-color:#840000;stop-opacity:1;"
         offset="1"
         id="stop3606-2-2" />
    </linearGradient>
    <linearGradient
       xlink:href="#linearGradient3669-3"
       id="linearGradient4329-0"
       gradientUnits="userSpaceOnUse"
       gradientTransform="matrix(0.81731796,0,0,1.9288701,-2.7299862,-14.350362)"
       x1="78.740204"
       y1="21.910299"
       x2="70.337143"
       y2="24.084332" />
    <linearGradient
       id="linearGradient3669-3">
      <stop
         style="stop-color:#001ccc;stop-opacity:1;"
         offset="0"
         id="stop3671-2" />
      <stop
         style="stop-color:#00afff;stop-opacity:1;"
         offset="1"
         id="stop3673-2" />
    </linearGradient>
    <linearGradient
       xlink:href="#linearGradient3669-22-5"
       id="linearGradient3675-0-5"
       x1="34.290413"
       y1="33.61211"
       x2="48.259949"
       y2="1.8468192"
       gradientUnits="userSpaceOnUse"
       gradientTransform="matrix(1.4976911,0,0,1.0526203,-3.6955244,-10.60101)" />
    <linearGradient
       id="linearGradient3669-22-5">
      <stop
         style="stop-color:#af7d00;stop-opacity:1;"
         offset="0"
         id="stop3671-8-3" />
      <stop
         style="stop-color:#ffed00;stop-opacity:1;"
         offset="1"
         id="stop3673-4-0" />
    </linearGradient>
    <radialGradient
       xlink:href="#linearGradient4009"
       id="radialGradient4017"
       cx="-38.110359"
       cy="21.017715"
       fx="-38.110359"
       fy="21.017715"
       r="17.227106"
       gradientTransform="matrix(1.0284162,-0.00250002,0.00475038,0.581957,0.49198438,-0.85035592)"
       gradientUnits="userSpaceOnUse" />
    <linearGradient
       xlink:href="#linearGradient3859"
       id="linearGradient3865"
       x1="21.658861"
       y1="36.936382"
       x2="20.305182"
       y2="28.071651"
       gradientUnits="userSpaceOnUse"
       gradientTransform="translate(-89.353353,-3.7800688)" />
    <linearGradient
       xlink:href="#linearGradient3867"
       id="linearGradient3873"
       x1="66.330261"
       y1="30.287834"
       x2="62.269226"
       y2="23.639286"
       gradientUnits="userSpaceOnUse"
       gradientTransform="translate(-89.353353,-3.7800688)" />
    <linearGradient
       xlink:href="#linearGradient3908"
       id="linearGradient3914"
       x1="48"
       y1="16"
       x2="54"
       y2="58"
       gradientUnits="userSpaceOnUse" />
    <linearGradient
       xlink:href="#linearGradient3908-5"
       id="linearGradient3914-3"
       x1="48"
       y1="16"
       x2="54"
       y2="58"
       gradientUnits="userSpaceOnUse" />
    <linearGradient
       id="linearGradient3908-5">
      <stop
         style="stop-color:#3465a4;stop-opacity:1"
         offset="0"
         id="stop3910-6" />
      <stop
         style="stop-color:#204a87;stop-opacity:1"
         offset="1"
         id="stop3912-2" />
    </linearGradient>
    <linearGradient
       xlink:href="#linearGradient4006"
       id="linearGradient4012"
       x1="21"
       y1="18"
       x2="28"
       y2="47"
       gradientUnits="userSpaceOnUse" />
    <linearGradient
       inkscape:collect="always"
       xlink:href="#linearGradient8"
       id="linearGradient7"
       x1="33.933208"
       y1="25.513664"
       x2="33.053459"
       y2="34.361145"
       gradientUnits="userSpaceOnUse" />
  </defs>
  <metadata
     id="metadata2821">
    <rdf:RDF>
      <cc:Work
         rdf:about="">
        <dc:format>image/svg+xml</dc:format>
        <dc:type
           rdf:resource="http://purl.org/dc/dcmitype/StillImage" />
        <dc:creator>
          <cc:Agent>
            <dc:title>[jmaustpc]</dc:title>
          </cc:Agent>
        </dc:creator>
        <dc:title>PartDesign_Hole</dc:title>
        <dc:date>2013-03-17</dc:date>
        <dc:relation>https://www.freecad.org/wiki/index.php?title=Artwork</dc:relation>
        <dc:publisher>
          <cc:Agent>
            <dc:title>FreeCAD</dc:title>
          </cc:Agent>
        </dc:publisher>
        <dc:identifier>FreeCAD/src/Mod/PartDesign/Gui/Resources/icons/PartDesign_Hole.svg</dc:identifier>
        <dc:rights>
          <cc:Agent>
            <dc:title>FreeCAD LGPL2+</dc:title>
          </cc:Agent>
        </dc:rights>
        <cc:license>https://www.gnu.org/copyleft/lesser.html</cc:license>
        <dc:contributor>
          <cc:Agent>
            <dc:title>[agryson] Alexander Gryson</dc:title>
          </cc:Agent>
        </dc:contributor>
      </cc:Work>
    </rdf:RDF>
  </metadata>
  <g
     transform="scale(0.73872768,1.3536788)"
     style="color:#000000;font-style:normal;font-variant:normal;font-weight:normal;font-stretch:normal;font-size:54.2152px;font-family:Arial;-inkscape-font-specification:Arial;display:inline;overflow:visible;visibility:visible;fill:#ff2600;fill-opacity:1;fill-rule:nonzero;stroke:#731200;stroke-width:2.19132;stroke-linecap:square;stroke-linejoin:round;stroke-miterlimit:4;stroke-dasharray:none;stroke-dashoffset:0;stroke-opacity:1;marker:none;enable-background:accumulate"
     id="text3796">
    <path
       style="fill:url(#linearGradient4012);fill-opacity:1;stroke:none;stroke-linecap:round;stroke-linejoin:round"
       d="M 34,15 7,14 7.8294958,49.248331 c 0,0 32.5882962,2.873076 32.1705062,1.341179 0,0 1.752945,-8.578531 -2.189579,-9.910566 C 30.190001,38.104282 28,38 27,31 25,17 34,15 34,15 Z"
       id="path3986"
       transform="scale(1.3536788,0.73872768)"
       sodipodi:nodetypes="ccccssc" />
    <path
       style="fill:url(#linearGradient7);stroke:none;stroke-width:1px;stroke-linecap:butt;stroke-linejoin:miter;stroke-opacity:1"
       d="m 13.7618,26.028053 24.25596,-0.27434 22.370783,8.264506 -42.667868,0.788729 z"
       id="path5"
       sodipodi:nodetypes="ccccc" />
    <path
       id="path3913-1-2-7"
       style="display:inline;overflow:visible;fill:none;stroke:#ef2929;stroke-width:2.24781;stroke-linecap:round;stroke-dashoffset:2.04;enable-background:accumulate"
       transform="matrix(1.0716624,0.15356384,0,0.73872768,26.283932,0.87519379)"
       d="m 43.687561,26 c 0,9.941125 -7.918991,18 -17.687561,18 -2.442143,0 -4.768686,-0.50368 -6.884797,-1.414529 -2.116111,-0.91085 3.601046,-7.109373 2.000637,-8.738053 C 19.51543,32.218738 9.248799,31.401619 9.1160433,30.900091 8.5144793,28.627486 8.7228993,27.796482 8.7228993,25.311201 8.7228993,15.370076 16.23143,8 26,8 c 9.76857,0 17.687561,8.058875 17.687561,18 z"
       sodipodi:nodetypes="ssssssss" />
    <path
       id="path3913-1-2"
       style="display:inline;overflow:visible;fill:none;stroke:#ef2929;stroke-width:2.32564;stroke-linecap:round;stroke-dashoffset:2.04;enable-background:accumulate"
       transform="matrix(1.0716624,0.14345735,0,0.69010984,4.6250692,1.3595184)"
       d="m 44.885246,26 c 0,10.472648 -8.455213,18.962406 -18.885246,18.962406 -2.607508,0 -4.935948,1.251218 -7.195348,0.291668 -2.2594,-0.95955 1.338344,-5.362843 -1.306013,-9.388616 C 15.977921,33.550314 9.085398,35.44902 8.7747616,34.139519 8.1981903,31.708958 7.1147537,28.618162 7.1147537,26 7.1147537,15.527352 15.569966,7.0375936 26,7.0375938 36.430033,7.0375938 44.885246,15.527352 44.885246,26 Z"
       sodipodi:nodetypes="ssssssss" />
    <path
       style="color:#000000;font-style:normal;font-variant:normal;font-weight:normal;font-stretch:normal;font-size:54.2152px;font-family:Arial;-inkscape-font-specification:Arial;display:inline;overflow:visible;visibility:visible;fill:none;stroke:#280000;stroke-width:2;stroke-linecap:round;stroke-linejoin:round;stroke-miterlimit:4;stroke-dasharray:none;stroke-dashoffset:2.04;stroke-opacity:1;marker:none;enable-background:accumulate;paint-order:markers fill stroke"
       id="path4"
       d="m 70.328462,26.491319 c 0,1.835947 5.213361,4.047502 4.237238,5.498471 -0.976123,1.450969 -2.388595,2.681211 -4.13399,3.634255 -1.745395,0.953044 -3.823713,1.628887 -6.131527,1.971058 -2.307814,0.34217 -4.845126,0.350668 -7.508508,-0.03098 -2.663383,-0.38165 -5.200694,-1.117315 -7.508509,-2.120882 -2.307814,-1.003567 0.83935,-6.461384 -1.304797,-7.745932 -1.097148,-0.657295 -8.925448,-1.53759 -9.777631,-2.893221 -1.076741,-1.712854 -0.573308,-2.322574 -0.698987,-3.301207 -0.2352,-1.831455 0.539775,-3.507642 1.515898,-4.958611 0.976124,-1.450969 2.388595,-2.681212 4.13399,-3.634256 1.745395,-0.953043 5.917506,1.733801 8.22532,1.39163 2.307814,-0.34217 2.751333,-3.713356 5.414716,-3.331706 2.663382,0.381649 5.200694,1.117315 7.508508,2.120882 2.307814,1.003566 4.386132,2.275035 6.131527,3.728291 1.745395,1.453257 3.157867,3.0883 4.13399,4.819016 0.976123,1.730716 -4.237238,3.017245 -4.237238,4.853193 z"
       sodipodi:nodetypes="ssssssssssssssssss" />
    <path
       style="fill:#3465a4;stroke:#0b1521;stroke-width:2;stroke-linecap:round;stroke-linejoin:round;stroke-miterlimit:4;stroke-dasharray:none;stroke-dashoffset:2.04;stroke-opacity:1"
       d="M 4.0610364,2.216183 V 37.675112 L 55.50083,45.046176 V 9.5872474 Z m 25.7198976,8.117899 c 5.326764,0.763298 16.1776,5.77336 17.597824,9.161 1.566604,3.736798 -2.077366,6.014934 -1.967573,7.099115 0.06064,0.598803 4.119843,6.19037 0.613894,8.864732 -3.505949,2.674361 -12.382387,3.181658 -17.597824,2.216183 -11.458668,-2.121215 -7.432464,-6.107121 -8.122073,-7.387277 -0.568491,-1.05532 -10.24389,-0.680652 -10.8294304,-7.017913 -0.3185239,-3.44736 2.7073574,-7.39815 2.7073574,-9.234096 0,-3.671892 7.490619,-0.638071 12.183109,-1.477455 1.980031,-0.354185 0.08795,-2.9875872 5.414716,-2.224289 z"
       id="rect3099"
       sodipodi:nodetypes="cccccssssssssss" />
    <rect
       style="color:#000000;font-style:normal;font-variant:normal;font-weight:normal;font-stretch:normal;font-size:54.2152px;font-family:Arial;-inkscape-font-specification:Arial;display:inline;overflow:visible;visibility:visible;fill:none;stroke:#729fcf;stroke-width:2.01019;stroke-linecap:round;stroke-linejoin:round;stroke-miterlimit:4;stroke-dasharray:none;stroke-dashoffset:2.04;stroke-opacity:1;marker:none;enable-background:accumulate"
       id="rect3099-1"
       width="47.45311"
       height="31.425747"
       x="6.1128764"
       y="3.6086419"
       transform="matrix(0.98988872,0.14184609,0,1,0,0)" />
    <path
       style="fill:none;stroke:#729fcf;stroke-width:1.9982;stroke-linecap:round;stroke-linejoin:round;stroke-miterlimit:4;stroke-dasharray:none;stroke-dashoffset:2.04;stroke-opacity:1"
       id="path3887"
       d="m 40.126546,27.344541 c -0.123195,1.35771 4.620983,3.253224 3.458925,6.661873 -0.736508,2.160388 -2.228869,4.092828 -3.857549,5.721507 -1.62868,1.628678 -3.56802,2.946696 -5.72151,3.857544 -2.15349,0.910848 -4.521131,1.414527 -7.006412,1.414527 -2.485281,0 -5.012756,-0.331978 -7.006412,-1.414527 -4.362009,-2.368556 0.328448,-5.515017 -1.300232,-7.143695 -1.62868,-1.628678 -6.472303,1.093881 -8.278827,-2.435356 C 9.3488106,31.924418 9,29.485283 9,27 c 0,-2.485283 0.5036797,-4.852924 1.414529,-7.006414 0.91085,-2.15349 2.228869,-4.092828 3.857549,-5.721507 1.62868,-1.628678 5.52745,1.302522 7.68094,0.391673 C 24.106508,13.752904 24.514719,9.0000078 27,9.0000078 c 2.485281,0 4.852922,0.5036788 7.006412,1.4145272 2.15349,0.910848 4.09283,2.228866 5.72151,3.857544 1.62868,1.628679 2.832343,3.620147 3.857549,5.721507 1.312784,2.690809 -3.369988,6.3708 -3.458925,7.350955 z"
       transform="matrix(1.190736,0.17489293,0,0.84133243,-2.368938,-3.4295014)"
       sodipodi:nodetypes="sssssssssssssssss" />
    <path
       style="fill:#729fcf;stroke:#0b1521;stroke-width:2;stroke-linecap:round;stroke-linejoin:round;stroke-opacity:1"
       d="m 3.2623523,2.562746 19.9999997,10e-8 L 61,12.883399 H 41 Z"
       id="path3136"
       transform="scale(1.3536788,0.73872768)" />
    <path
       style="fill:url(#linearGradient3914);fill-opacity:1;stroke:#0b1521;stroke-width:2;stroke-linecap:round;stroke-linejoin:round;stroke-opacity:1"
       d="M 41,12.708497 V 61.378953 H 61 V 12.708497 Z"
       id="path3138"
       transform="scale(1.3536788,0.73872768)" />
    <path
       style="color:#000000;font-style:normal;font-variant:normal;font-weight:normal;font-stretch:normal;font-size:54.2152px;font-family:Arial;-inkscape-font-specification:Arial;display:inline;overflow:visible;visibility:visible;fill:none;fill-opacity:1;fill-rule:nonzero;stroke:#3465a4;stroke-width:2;stroke-linecap:round;stroke-linejoin:round;stroke-miterlimit:4;stroke-dasharray:none;stroke-dashoffset:0;stroke-opacity:1;marker:none;enable-background:accumulate"
       d="m 57.765234,11.22758 v 32.265991 l 22.113425,-0.0835 -4e-6,-32.182493 z"
       id="path3138-9" />
    <path
       style="color:#000000;font-style:normal;font-variant:normal;font-weight:normal;font-stretch:normal;font-size:54.2152px;font-family:Arial;-inkscape-font-specification:Arial;display:inline;overflow:visible;visibility:visible;fill:none;stroke:#280000;stroke-width:2.24781;stroke-linecap:round;stroke-linejoin:round;stroke-miterlimit:4;stroke-dasharray:none;stroke-dashoffset:2.04;stroke-opacity:1;marker:none;enable-background:accumulate"
       id="path3913-1"
       d="m 38.631578,26.38517 c 0,2.485283 4.864742,4.467754 3.953893,6.621244 -0.91085,2.15349 -2.228869,4.092828 -3.857549,5.721507 -1.62868,1.628678 -3.56802,2.946696 -5.72151,3.857544 -2.15349,0.910848 -4.521131,1.414527 -7.006412,1.414527 -2.485281,0 -4.852922,-0.503679 -7.006412,-1.414527 -2.15349,-0.910848 1.056144,-6.370332 -0.572536,-7.99901 -1.62868,-1.628679 -8.095673,0.573449 -9.0065227,-1.580041 C 8.5036797,30.852924 8,28.485283 8,26 c 0,-2.485283 0.5036797,-4.852924 1.4145293,-7.006414 0.9108497,-2.15349 2.2288687,-4.092828 3.8575487,-5.721507 1.62868,-1.628678 5.5218,1.199159 7.67529,0.288311 C 23.100858,12.649542 23.514719,8.0000078 26,8.0000078 c 2.485281,0 4.852922,0.5036788 7.006412,1.4145271 2.15349,0.9108481 4.09283,2.2288661 5.72151,3.8575441 1.62868,1.628679 2.946699,3.568017 3.857549,5.721507 0.910849,2.15349 -3.953893,4.906301 -3.953893,7.391584 z"
       transform="matrix(1.0716624,0.15356384,0,0.73872768,1.9177116,1.1703277)"
       sodipodi:nodetypes="sssssssssssssssss" />
    <path
       style="fill:none;stroke:#280000;stroke-width:1.6;stroke-linecap:round;stroke-linejoin:miter;stroke-dasharray:none;stroke-opacity:1"
       d="M 24.366221,14.404521 H 39.256685"
       id="path1"
       sodipodi:nodetypes="cc" />
  </g>
  <g
     inkscape:groupmode="layer"
     id="layer2"
     inkscape:label="Layer 1" />
</svg>
