<svg xmlns="http://www.w3.org/2000/svg" xmlns:xlink="http://www.w3.org/1999/xlink" width="64" height="64" viewBox="0 0 16.93 16.93"><defs><linearGradient id="c"><stop offset="0" style="stop-color:#888a85;stop-opacity:1"/><stop offset="1" style="stop-color:#2e3436;stop-opacity:1"/></linearGradient><linearGradient id="b"><stop offset="0" style="stop-color:#ce5c00;stop-opacity:1"/><stop offset="1" style="stop-color:#fcaf3e;stop-opacity:1"/></linearGradient><linearGradient id="a"><stop offset="0" style="stop-color:#c4a000;stop-opacity:1"/><stop offset="1" style="stop-color:#fce94f;stop-opacity:1"/></linearGradient><linearGradient xlink:href="#a" id="e" x1="9.22" x2="2.19" y1="7.34" y2="6.83" gradientUnits="userSpaceOnUse"/><linearGradient xlink:href="#a" id="h" x1="4.53" x2="1.12" y1="5.02" y2="3.48" gradientUnits="userSpaceOnUse"/><linearGradient xlink:href="#a" id="g" x1="7.55" x2="2.99" y1="4.9" y2="2.53" gradientUnits="userSpaceOnUse"/><linearGradient xlink:href="#a" id="f" x1="9.53" x2="7.5" y1="4.27" y2="4.27" gradientUnits="userSpaceOnUse"/><linearGradient xlink:href="#b" id="i" x1="7.96" x2="7.72" y1="15.31" y2="12.66" gradientUnits="userSpaceOnUse"/><linearGradient xlink:href="#b" id="d" x1="11.14" x2="11.34" y1="12.66" y2="10.03" gradientUnits="userSpaceOnUse"/><linearGradient xlink:href="#c" id="j" x1="9.52" x2="17.99" y1="4.76" y2="12.96" gradientTransform="translate(-.26 -.17)" gradientUnits="userSpaceOnUse"/></defs><path d="M5.35 8.24a.93.93 0 0 0-.5.3c0 .13-.03.45.02 1.01.05.67.21 1.44.5 1.84.7 1 1.89 1.36 3.14 1.36h6.76a2 2 0 0 0 .32-.7c0-.17-.12-.4-.3-.65H8.5c-.3 0-.6.03-.96-.07-.35-.1-.69-.33-.99-.75a2.44 2.44 0 0 1-.39-1.5c0-.29.03-.37.06-.5-.37-.3-.66-.37-.88-.34Z" style="fill:url(#d);stroke:#fcaf3e;stroke-width:.529167;stroke-linecap:round;paint-order:fill markers stroke;stroke-opacity:1"/><path d="M6.67 8.37s-.3 1.24.23 1.97c.52.72.97.64 1.61.64H15.54c.67.83.57 1.33 0 2.19H8.52c-1.34 0-2.69-.4-3.5-1.54-.74-1.04-.58-3.3-.58-3.3.34-.42 1.19-.93 2.23.04Z" style="fill:none;stroke:#321900;stroke-width:.529167;stroke-linecap:round;paint-order:fill markers stroke"/><path d="m1.47 5.7 3.24 2.45h2.03L9.98 5.8 6.92 3.97l-3.26.25Z" style="fill:url(#e);stroke:none;stroke-width:.264583px;stroke-linecap:butt;stroke-linejoin:miter;stroke-opacity:1;fill-opacity:1"/><path d="M7.57 1.7h2.36l-.09 3.86-2.4-.1Z" style="fill:url(#f);stroke:none;stroke-width:.264583px;stroke-linecap:butt;stroke-linejoin:miter;stroke-opacity:1;fill-opacity:1"/><path d="m4.13 1.8 3.35-.04.02 3.69-3.53-.11Z" style="fill:url(#g);stroke:none;stroke-width:.264583px;stroke-linecap:butt;stroke-linejoin:miter;stroke-opacity:1;fill-opacity:1"/><path d="m1.65 1.7 2.44.04-.36 3.8-2.17-.2Z" style="fill:url(#h);stroke:none;stroke-width:.264583px;stroke-linecap:butt;stroke-linejoin:miter;stroke-opacity:1;fill-opacity:1"/><path d="M1.7 1.7v3.93l3 2.2H6.5l3.17-2.2V1.7Z" style="fill:none;stroke:#fce94f;stroke-width:.529167;stroke-linecap:round;stroke-linejoin:round;stroke-dasharray:none;stroke-opacity:1"/><path d="m1.32 5.82 3.26 2.4h2.05l3.42-2.4v-4.5H1.32Z" style="fill:none;stroke:#302b00;stroke-width:.52916667;stroke-linecap:round;stroke-linejoin:round;stroke-opacity:1;stroke-dasharray:none"/><path d="m4.13 1.79.02 3.59c.6-.47 1.49-1.1 3.1-.07V1.83" style="fill:none;stroke:#fce94f;stroke-width:.529167;stroke-linecap:butt;stroke-linejoin:miter;stroke-dasharray:none;stroke-opacity:1"/><path d="M1.32 5.82s1.22-1.05 2.38 0c1.06-.8 2.39-.8 3.97 0 1.23-1.05 2.38 0 2.38 0" style="fill:none;stroke:#302b00;stroke-width:.52916667;stroke-linecap:butt;stroke-linejoin:round;stroke-opacity:1;stroke-dasharray:none"/><path d="M3.7 5.82v-4.5" style="fill:none;stroke:#302b00;stroke-width:.52916667;stroke-linecap:round;stroke-linejoin:round;stroke-opacity:1;stroke-dasharray:none"/><path d="M7.67 5.82v-4.5" style="fill:none;stroke:#302b00;stroke-width:.529167;stroke-linecap:round;stroke-linejoin:round;stroke-dasharray:none;stroke-opacity:1"/><path d="M1.72 13.62c-.52.57-.38 1.18-.05 1.43h13.67c.18-.3.32-.57.33-.75 0-.18-.12-.4-.32-.68z" style="fill:url(#i);stroke:#fcaf3e;stroke-width:.529167;stroke-linecap:round;stroke-opacity:1;paint-order:fill markers stroke"/><path d="M1.53 13.24h14.05c.68.82.57 1.32 0 2.18H1.53c-.63-.37-.81-1.41 0-2.18z" style="fill:none;stroke:#321900;stroke-width:.529167;stroke-linecap:round;paint-order:fill markers stroke"/><path d="M11.64.89v.53h1.94L12.28 5c.36-.31.78-.5 1.21-.54v7.45a2.28 2.28 0 0 1-1.21-.54L13.59 15h-1.95v.53h4.23v-.53h-1.94l1.31-3.62c-.36.31-.78.5-1.22.54V4.46c.44.05.86.23 1.22.54l-1.3-3.58h1.93V.89Z" style="baseline-shift:baseline;display:inline;overflow:visible;opacity:1;fill:url(#j);stroke:#888a85;stroke-width:.264583;stroke-linecap:round;stroke-linejoin:round;stroke-dasharray:none;stroke-opacity:1;enable-background:accumulate;stop-color:#000;stop-opacity:1"/><path d="M11.9.8a.26.26 0 0 0-.26.26v.53a.26.26 0 0 0 .27.26h1.56l-1.18 3.23a.26.26 0 0 0 .42.29 2 2 0 0 1 .79-.4v6.77a2 2 0 0 1-.79-.4.26.26 0 0 0-.42.3l1.2 3.25H11.9a.26.26 0 0 0-.27.27v.53a.26.26 0 0 0 .27.26h4.23a.26.26 0 0 0 .26-.26v-.53a.26.26 0 0 0-.26-.27h-1.58l1.19-3.26a.26.26 0 0 0-.42-.29c-.23.2-.5.33-.78.4V4.97a2 2 0 0 1 .78.4.26.26 0 0 0 .42-.3l-1.17-3.22h1.56a.26.26 0 0 0 .26-.26v-.53a.26.26 0 0 0-.26-.26Z" style="baseline-shift:baseline;display:inline;overflow:visible;opacity:1;fill:none;stroke:#000;stroke-width:.264583;stroke-dasharray:none;stroke-opacity:1;enable-background:accumulate;stop-color:#000;stop-opacity:1" transform="translate(-.26 -.17)"/></svg>